<svg xmlns="http://www.w3.org/2000/svg" viewBox="0 0 1200 800" width="1200" height="800" preserveAspectRatio="xMidYMid slice" role="img"><title>Ghuro Bangladesh — hills landscape</title><defs>
    <linearGradient id="grshilsky" x1="0" y1="0" x2="0" y2="1">
      <stop offset="0%" stop-color="#070d22"/><stop offset="25%" stop-color="#101c40"/><stop offset="50%" stop-color="#1c2c58"/><stop offset="75%" stop-color="#2f4374"/><stop offset="100%" stop-color="#4d5f92"/>
    </linearGradient>
    <radialGradient id="grshilglow" cx="50%" cy="50%" r="50%">
      <stop offset="0%" stop-color="#a2b6e4" stop-opacity="0.85"/>
      <stop offset="100%" stop-color="#a2b6e4" stop-opacity="0"/>
    </radialGradient>
    <linearGradient id="grshilvig" x1="0" y1="0" x2="0" y2="1">
      <stop offset="0%" stop-color="#05080f" stop-opacity="0.28"/>
      <stop offset="34%" stop-color="#05080f" stop-opacity="0"/>
      <stop offset="100%" stop-color="#05080f" stop-opacity="0.34"/>
    </linearGradient>
  </defs><rect width="1200" height="800" fill="url(#grshilsky)"/><circle cx="172.3" cy="278.9" r="0.9" fill="#ffffff" opacity="0.1"/><circle cx="1032.2" cy="248.6" r="1.3" fill="#ffffff" opacity="0.1"/><circle cx="1106.1" cy="17.7" r="0.7" fill="#ffffff" opacity="0.5"/><circle cx="1002.1" cy="212.9" r="0.7" fill="#ffffff" opacity="0.3"/><circle cx="998.6" cy="320.4" r="1.1" fill="#ffffff" opacity="0"/><circle cx="1044" cy="172.7" r="0.7" fill="#ffffff" opacity="0.3"/><circle cx="240.6" cy="34.5" r="1.1" fill="#ffffff" opacity="0.7"/><circle cx="749.4" cy="13.5" r="1.8" fill="#ffffff" opacity="0.4"/><circle cx="920.8" cy="17.4" r="1.4" fill="#ffffff" opacity="0.3"/><circle cx="899.3" cy="320.6" r="1.2" fill="#ffffff" opacity="0"/><circle cx="757.7" cy="141.1" r="1.9" fill="#ffffff" opacity="0.1"/><circle cx="500" cy="51.9" r="0.8" fill="#ffffff" opacity="0.8"/><circle cx="122.6" cy="349.6" r="1.8" fill="#ffffff" opacity="0"/><circle cx="1117.6" cy="199" r="0.8" fill="#ffffff" opacity="0.3"/><circle cx="785.5" cy="207.4" r="0.6" fill="#ffffff" opacity="0.1"/><circle cx="1146.3" cy="189.6" r="1.7" fill="#ffffff" opacity="0.1"/><circle cx="1147.3" cy="93.4" r="1.8" fill="#ffffff" opacity="0.4"/><circle cx="334.7" cy="263.9" r="0.8" fill="#ffffff" opacity="0.1"/><circle cx="759" cy="15.8" r="1.8" fill="#ffffff" opacity="0.3"/><circle cx="1063.7" cy="65.1" r="1.7" fill="#ffffff" opacity="0.5"/><circle cx="1096.5" cy="213.4" r="1.2" fill="#ffffff" opacity="0.3"/><circle cx="951.6" cy="197.9" r="1" fill="#ffffff" opacity="0.1"/><circle cx="913.1" cy="285.9" r="0.9" fill="#ffffff" opacity="0.2"/><circle cx="1143" cy="127.8" r="0.8" fill="#ffffff" opacity="0.5"/><circle cx="489.1" cy="101.4" r="1.5" fill="#ffffff" opacity="0.3"/><circle cx="341.7" cy="295.9" r="0.7" fill="#ffffff" opacity="0.1"/><circle cx="383" cy="27.3" r="1" fill="#ffffff" opacity="0.5"/><circle cx="700.9" cy="217.5" r="1.2" fill="#ffffff" opacity="0.3"/><circle cx="357.7" cy="43.7" r="1.1" fill="#ffffff" opacity="0.3"/><circle cx="1130.1" cy="155.9" r="0.9" fill="#ffffff" opacity="0.3"/><circle cx="448" cy="343.6" r="0.9" fill="#ffffff" opacity="0"/><circle cx="811.6" cy="65" r="0.8" fill="#ffffff" opacity="0.5"/><circle cx="1196.8" cy="174.7" r="1.3" fill="#ffffff" opacity="0.1"/><circle cx="519.6" cy="228.5" r="0.8" fill="#ffffff" opacity="0.1"/><circle cx="879" cy="285.4" r="1.9" fill="#ffffff" opacity="0.1"/><circle cx="48.1" cy="336.6" r="0.7" fill="#ffffff" opacity="0"/><circle cx="796.7" cy="116" r="1.7" fill="#ffffff" opacity="0.2"/><circle cx="198.9" cy="310.8" r="1.2" fill="#ffffff" opacity="0.1"/><circle cx="871.9" cy="147.1" r="1.3" fill="#ffffff" opacity="0.5"/><circle cx="404.2" cy="106.8" r="0.8" fill="#ffffff" opacity="0.4"/><circle cx="400.7" cy="95.5" r="0.8" fill="#ffffff" opacity="0.1"/><circle cx="771.5" cy="113.8" r="1.2" fill="#ffffff" opacity="0.5"/><circle cx="931" cy="111" r="0.9" fill="#ffffff" opacity="0.6"/><circle cx="1134.7" cy="39.6" r="0.9" fill="#ffffff" opacity="0.4"/><circle cx="28.8" cy="84.4" r="1.4" fill="#ffffff" opacity="0.6"/><circle cx="653.8" cy="56.5" r="1.3" fill="#ffffff" opacity="0.2"/><circle cx="59.5" cy="290.7" r="1.5" fill="#ffffff" opacity="0.1"/><circle cx="194.9" cy="293.4" r="1.8" fill="#ffffff" opacity="0.1"/><circle cx="378.8" cy="288" r="1.6" fill="#ffffff" opacity="0.1"/><circle cx="492.1" cy="169.2" r="1.8" fill="#ffffff" opacity="0.4"/><circle cx="45.4" cy="67.4" r="1.4" fill="#ffffff" opacity="0.6"/><circle cx="1185" cy="198" r="1.2" fill="#ffffff" opacity="0.2"/><circle cx="850.8" cy="325.2" r="0.7" fill="#ffffff" opacity="0.1"/><circle cx="457.9" cy="253.2" r="1.5" fill="#ffffff" opacity="0.1"/><circle cx="500.6" cy="50.1" r="1.4" fill="#ffffff" opacity="0.6"/><circle cx="24.2" cy="279.5" r="1.8" fill="#ffffff" opacity="0.1"/><circle cx="930.1" cy="206.3" r="0.8" fill="#ffffff" opacity="0.3"/><circle cx="586.7" cy="66.8" r="0.7" fill="#ffffff" opacity="0.3"/><circle cx="1105.1" cy="128" r="0.7" fill="#ffffff" opacity="0.3"/><circle cx="804.2" cy="66.8" r="1.7" fill="#ffffff" opacity="0.4"/><circle cx="823.7" cy="325.4" r="0.9" fill="#ffffff" opacity="0"/><circle cx="220.1" cy="227.7" r="1.2" fill="#ffffff" opacity="0.3"/><circle cx="3.3" cy="193.6" r="1" fill="#ffffff" opacity="0.2"/><circle cx="362.1" cy="303.3" r="1.2" fill="#ffffff" opacity="0.1"/><circle cx="706.6" cy="247.7" r="1.8" fill="#ffffff" opacity="0.2"/><circle cx="1127.1" cy="25.6" r="0.7" fill="#ffffff" opacity="0.6"/><circle cx="216.8" cy="331" r="0.8" fill="#ffffff" opacity="0"/><circle cx="496" cy="280.2" r="1.9" fill="#ffffff" opacity="0.1"/><circle cx="704.8" cy="240.8" r="1.4" fill="#ffffff" opacity="0.2"/><circle cx="454.6" cy="354" r="0.8" fill="#ffffff" opacity="0"/><circle cx="206.1" cy="174.3" r="1.3" fill="#ffffff" opacity="0.4"/><circle cx="1105.7" cy="329.8" r="0.9" fill="#ffffff" opacity="0"/><circle cx="720.9" cy="201.4" r="1.4" fill="#ffffff" opacity="0.3"/><circle cx="741.1" cy="48" r="1.6" fill="#ffffff" opacity="0.3"/><circle cx="544.2" cy="327.8" r="1" fill="#ffffff" opacity="0"/><circle cx="1137.4" cy="309.6" r="1.8" fill="#ffffff" opacity="0.1"/><circle cx="1161.6" cy="62.9" r="1.4" fill="#ffffff" opacity="0.3"/><circle cx="164.2" cy="28.9" r="1.4" fill="#ffffff" opacity="0.6"/><circle cx="389.7" cy="129" r="1" fill="#ffffff" opacity="0.4"/><circle cx="717.5" cy="180.8" r="1.5" fill="#ffffff" opacity="0.4"/><circle cx="683.1" cy="143.9" r="1.6" fill="#ffffff" opacity="0.4"/><circle cx="300.7" cy="158.1" r="1.2" fill="#ffffff" opacity="0.2"/><circle cx="741.3" cy="324.6" r="0.6" fill="#ffffff" opacity="0.1"/><circle cx="138.4" cy="145.4" r="1.2" fill="#ffffff" opacity="0.4"/><circle cx="581.5" cy="157.2" r="1.3" fill="#ffffff" opacity="0.4"/><circle cx="91.9" cy="45.3" r="0.9" fill="#ffffff" opacity="0.6"/><circle cx="519.8" cy="110.1" r="1.3" fill="#ffffff" opacity="0.3"/><circle cx="27" cy="286.9" r="1.2" fill="#ffffff" opacity="0.1"/><circle cx="956.5" cy="235.7" r="0.9" fill="#ffffff" opacity="0.1"/><circle cx="727.8" cy="352.7" r="0.8" fill="#ffffff" opacity="0"/><circle cx="785.5" cy="198.5" r="1" fill="#ffffff" opacity="0.1"/><circle cx="841.4" cy="79" r="1.7" fill="#ffffff" opacity="0.5"/><circle cx="142.6" cy="347.1" r="1.1" fill="#ffffff" opacity="0"/><circle cx="331.3" cy="274.8" r="1.1" fill="#ffffff" opacity="0.1"/><circle cx="605.8" cy="79.6" r="0.8" fill="#ffffff" opacity="0.2"/><circle cx="857.9" cy="63.5" r="1.9" fill="#ffffff" opacity="0.6"/><circle cx="286.2" cy="105.4" r="0.9" fill="#ffffff" opacity="0.2"/><circle cx="76" cy="16.9" r="1.2" fill="#ffffff" opacity="0.1"/><circle cx="230.2" cy="94.5" r="1.4" fill="#ffffff" opacity="0.3"/><circle cx="437.8" cy="348.5" r="1.8" fill="#ffffff" opacity="0"/><circle cx="359.4" cy="231.6" r="1.4" fill="#ffffff" opacity="0.3"/><circle cx="471.2" cy="42.3" r="1.4" fill="#ffffff" opacity="0.6"/><circle cx="1091" cy="26.8" r="1.8" fill="#ffffff" opacity="0.7"/><circle cx="757.1" cy="28.3" r="1" fill="#ffffff" opacity="0.5"/><circle cx="68.1" cy="192.9" r="0.7" fill="#ffffff" opacity="0.4"/><circle cx="458.9" cy="269.7" r="0.8" fill="#ffffff" opacity="0.2"/><circle cx="646.3" cy="160.1" r="1.7" fill="#ffffff" opacity="0.1"/><circle cx="431.3" cy="44.1" r="0.9" fill="#ffffff" opacity="0.3"/><circle cx="797.9" cy="74.5" r="1.2" fill="#ffffff" opacity="0.1"/><circle cx="321.5" cy="40" r="0.8" fill="#ffffff" opacity="0.2"/><circle cx="552.6" cy="28.8" r="1.6" fill="#ffffff" opacity="0.2"/><circle cx="382.2" cy="273.7" r="1.2" fill="#ffffff" opacity="0.1"/><circle cx="198.4" cy="248.7" r="1.6" fill="#ffffff" opacity="0.1"/><circle cx="1150.8" cy="348.3" r="1.6" fill="#ffffff" opacity="0"/><circle cx="245.4" cy="222.8" r="1" fill="#ffffff" opacity="0.2"/><circle cx="520.1" cy="74.2" r="1" fill="#ffffff" opacity="0.7"/><circle cx="1082.8" cy="87.5" r="1.8" fill="#ffffff" opacity="0.5"/><circle cx="616.3" cy="83.2" r="0.8" fill="#ffffff" opacity="0.6"/><circle cx="618.6" cy="349.7" r="1.9" fill="#ffffff" opacity="0"/><circle cx="237.2" cy="12.3" r="1.1" fill="#ffffff" opacity="0.9"/><circle cx="1090.7" cy="122.8" r="0.9" fill="#ffffff" opacity="0.5"/><circle cx="1084" cy="171.5" r="0.7" fill="#ffffff" opacity="0.2"/><circle cx="880.7" cy="65.3" r="1.3" fill="#ffffff" opacity="0.2"/><circle cx="151.9" cy="311.2" r="1.7" fill="#ffffff" opacity="0.1"/><circle cx="640.7" cy="64.1" r="1.2" fill="#ffffff" opacity="0.4"/><circle cx="1074.4" cy="5.6" r="1.2" fill="#ffffff" opacity="0.8"/><circle cx="991" cy="15.5" r="1.2" fill="#ffffff" opacity="0.8"/><circle cx="919" cy="215.4" r="1" fill="#ffffff" opacity="0.3"/><circle cx="556.2" cy="352.8" r="1.6" fill="#ffffff" opacity="0"/><circle cx="1122.8" cy="32.9" r="0.8" fill="#ffffff" opacity="0.2"/><circle cx="817.7" cy="71.2" r="130.8" fill="url(#grshilglow)"/><circle cx="817.7" cy="71.2" r="40.9" fill="#f2f5ff" opacity="0.96"/><g transform="translate(368.8 130.5)" fill="#38497a" opacity="0.2"><ellipse cx="0" cy="0" rx="181.8" ry="44.5"/><ellipse cx="-17.8" cy="-11.7" rx="50.4" ry="31.7"/><ellipse cx="-120.3" cy="-40.1" rx="60.6" ry="30.5"/><ellipse cx="-35.1" cy="-26.3" rx="45.6" ry="37.5"/></g><g transform="translate(218.9 289.4)" fill="#38497a" opacity="0.1"><ellipse cx="0" cy="0" rx="165.9" ry="31.7"/><ellipse cx="3.4" cy="-11.8" rx="34.1" ry="20.1"/><ellipse cx="-63.3" cy="-13.6" rx="65.8" ry="44.9"/><ellipse cx="-77.5" cy="-22.2" rx="36.3" ry="29.2"/><ellipse cx="59.3" cy="-36.3" rx="57.3" ry="48"/><ellipse cx="50.2" cy="-35.6" rx="66.2" ry="50.5"/></g><g transform="translate(333.5 229)" fill="#38497a" opacity="0.3"><ellipse cx="0" cy="0" rx="169.6" ry="39"/><ellipse cx="76.4" cy="-20.9" rx="61.1" ry="46.2"/><ellipse cx="6.9" cy="-19.4" rx="35.7" ry="25.8"/><ellipse cx="40.5" cy="-36.1" rx="67.5" ry="51.5"/></g><g transform="translate(228.9 82.4)" fill="#38497a" opacity="0.3"><ellipse cx="0" cy="0" rx="88.4" ry="17"/><ellipse cx="11.1" cy="-8.4" rx="25.5" ry="16.4"/><ellipse cx="-4.4" cy="-12" rx="25.3" ry="14.4"/><ellipse cx="-20.1" cy="-19.6" rx="29.9" ry="15.7"/></g><path d="M-40 381.1 Q-36.7 273.3 59.3 240.6 Q143.3 279.8 203.3 324.8 Q179.1 274.4 275.1 241.7 Q359.1 280.9 419.1 319.2 Q335 249.9 431 217.2 Q515 256.4 575 314.3 Q599.8 267.1 695.8 234.4 Q779.8 273.6 839.8 323.5 Q846.3 306.4 942.3 273.8 Q1026.3 313 1086.3 325.7 Q1055.2 282.5 1151.2 249.8 Q1235.2 289.1 1295.2 312.1 L1240 840 L-40 840 Z" fill="#303f6b"/><path d="M-40 458.8 Q-138.3 409.7 21.7 382.2 Q161.7 415.2 261.7 404.3 Q169.7 382.5 329.7 354.9 Q469.7 388 569.7 400.1 Q545.9 375.8 705.9 348.3 Q845.9 381.3 945.9 411.6 Q1058.1 412.2 1218.1 384.6 Q1358.1 417.7 1458.1 411.5 L1240 840 L-40 840 Z" fill="#28355a"/><path d="M-40 545.6 Q-53.6 455.8 26.4 428.9 Q96.4 461.2 146.4 489.4 Q137.8 447.4 217.8 420.4 Q287.8 452.8 337.8 499 Q355.3 467.1 435.3 440.2 Q505.3 472.5 555.3 497.7 Q539.1 459.1 619.1 432.2 Q689.1 464.5 739.1 496.5 Q723.6 411.4 803.6 384.4 Q873.6 416.7 923.6 487.2 Q933.1 482.7 1013.1 455.8 Q1083.1 488.1 1133.1 488.8 Q1116.3 458.8 1196.3 431.9 Q1266.3 464.2 1316.3 494.4 L1240 840 L-40 840 Z" fill="#202a48"/><path d="M-40 618.4 Q-198 597 -38 577.7 Q102 600.8 202 578.3 Q229.3 546.6 389.3 527.3 Q529.3 550.4 629.3 578 Q618.2 555.2 778.2 535.9 Q918.2 559 1018.2 584 Q1104.9 571.4 1264.9 552.1 Q1404.9 575.3 1504.9 578.9 L1240 840 L-40 840 Z" fill="#172037"/><path d="M-40 727.8 Q-53.2 632.9 66.8 602.9 Q171.8 638.9 246.8 665.1 Q231.1 581.3 351.1 551.3 Q456.1 587.3 531.1 671.1 Q553.1 612.3 673.1 582.3 Q778.1 618.3 853.1 662.6 Q769.2 678.1 889.2 648.1 Q994.2 684.1 1069.2 664.2 Q1124 624.9 1244 594.9 Q1349 630.9 1424 671.8 L1240 840 L-40 840 Z" fill="#0f1525"/><path d="M221.1 692.8 Q227.1 710.1 224.5 722.7 L217.7 722.7 Q215 710.1 221.1 692.8 Z" fill="#0f1525"/><path d="M283.5 671.5 Q295.1 702.3 290 724.6 L276.9 724.6 Q271.8 702.3 283.5 671.5 Z" fill="#0f1525"/><path d="M539 638.9 Q549.7 668.2 545 689.4 L533 689.4 Q528.3 668.2 539 638.9 Z" fill="#0f1525"/><path d="M786 699.2 Q795.4 723.9 791.3 741.8 L780.8 741.8 Q776.7 723.9 786 699.2 Z" fill="#0f1525"/><path d="M808.8 642.8 Q822.2 675 816.3 698.2 L801.4 698.2 Q795.5 675 808.8 642.8 Z" fill="#0f1525"/><path d="M876.4 685.8 Q885.6 713.9 881.5 734.3 L871.2 734.3 Q867.1 713.9 876.4 685.8 Z" fill="#0f1525"/><path d="M556.1 655.8 Q566.1 682.5 561.7 701.7 L550.6 701.7 Q546.2 682.5 556.1 655.8 Z" fill="#0f1525"/><path d="M534.5 690.1 Q542.5 712.5 539 728.7 L530 728.7 Q526.5 712.5 534.5 690.1 Z" fill="#0f1525"/><path d="M-40 801 Q-82.4 741.7 -2.4 719.1 Q67.6 746.2 117.6 751.4 Q145.3 691.3 225.3 668.8 Q295.3 695.9 345.3 756.4 Q359.2 752.4 439.2 729.8 Q509.2 756.9 559.2 752.5 Q555.3 762 635.3 739.4 Q705.3 766.5 755.3 759.5 Q711.5 699 791.5 676.4 Q861.5 703.5 911.5 757.5 Q960.3 774.6 1040.3 752.1 Q1110.3 779.2 1160.3 763.9 Q1078.1 728.3 1158.1 705.7 Q1228.1 732.8 1278.1 760.8 L1240 840 L-40 840 Z" fill="#070b14"/><path d="M232.5 745.1 Q240.2 767.2 236.8 783.2 L228.2 783.2 Q224.8 767.2 232.5 745.1 Z" fill="#070b14"/><path d="M1198 756.9 Q1212.2 789.7 1206 813.4 L1190.1 813.4 Q1183.9 789.7 1198 756.9 Z" fill="#070b14"/><path d="M712.5 767.4 Q719.3 789.7 716.3 805.9 L708.7 805.9 Q705.8 789.7 712.5 767.4 Z" fill="#070b14"/><path d="M13.6 780.4 Q20.4 802.8 17.4 819 L9.8 819 Q6.8 802.8 13.6 780.4 Z" fill="#070b14"/><path d="M514.7 743.1 Q523.4 766.1 519.5 782.7 L509.8 782.7 Q505.9 766.1 514.7 743.1 Z" fill="#070b14"/><path d="M780.6 769.4 Q790 801.6 785.9 824.9 L775.3 824.9 Q771.2 801.6 780.6 769.4 Z" fill="#070b14"/><path d="M105.9 787.1 Q113.3 813 110.1 831.7 L101.7 831.7 Q98.4 813 105.9 787.1 Z" fill="#070b14"/><path d="M921.3 776.9 Q931.2 799.5 926.8 815.9 L915.8 815.9 Q911.5 799.5 921.3 776.9 Z" fill="#070b14"/><path d="M402.8 739.6 Q415.6 772.6 410 796.4 L395.6 796.4 Q389.9 772.6 402.8 739.6 Z" fill="#070b14"/><path d="M1055.9 759.3 Q1064.5 778.9 1060.7 793.1 L1051.2 793.1 Q1047.4 778.9 1055.9 759.3 Z" fill="#070b14"/><path d="M1173 776.7 Q1181.3 804.2 1177.7 824.2 L1168.4 824.2 Q1164.7 804.2 1173 776.7 Z" fill="#070b14"/><path d="M200.4 767.9 Q206.4 786.5 203.7 800 L197 800 Q194.4 786.5 200.4 767.9 Z" fill="#070b14"/><ellipse cx="1005.1" cy="437.6" rx="235.6" ry="21.7" fill="#ffffff" opacity="0.2"/><ellipse cx="570.9" cy="357.5" rx="184.4" ry="15" fill="#ffffff" opacity="0.3"/><ellipse cx="207.9" cy="362.1" rx="252.9" ry="14.7" fill="#ffffff" opacity="0.2"/><ellipse cx="250.7" cy="383.7" rx="337.6" ry="22.3" fill="#ffffff" opacity="0.2"/><rect width="1200" height="800" fill="url(#grshilvig)"/></svg>