<svg xmlns="http://www.w3.org/2000/svg" viewBox="0 0 1200 800" width="1200" height="800" preserveAspectRatio="xMidYMid slice" role="img"><title>Ghuro Bangladesh — mangrove landscape</title><defs>
    <linearGradient id="ge2mansky" x1="0" y1="0" x2="0" y2="1">
      <stop offset="0%" stop-color="#2d4272"/><stop offset="25%" stop-color="#6d5a94"/><stop offset="50%" stop-color="#c47b96"/><stop offset="75%" stop-color="#f2a878"/><stop offset="100%" stop-color="#ffdda4"/>
    </linearGradient>
    <radialGradient id="ge2manglow" cx="50%" cy="50%" r="50%">
      <stop offset="0%" stop-color="#ffc078" stop-opacity="0.85"/>
      <stop offset="100%" stop-color="#ffc078" stop-opacity="0"/>
    </radialGradient>
    <linearGradient id="ge2manvig" x1="0" y1="0" x2="0" y2="1">
      <stop offset="0%" stop-color="#1d2a38" stop-opacity="0.28"/>
      <stop offset="34%" stop-color="#1d2a38" stop-opacity="0"/>
      <stop offset="100%" stop-color="#1d2a38" stop-opacity="0.34"/>
    </linearGradient>
  </defs><rect width="1200" height="800" fill="url(#ge2mansky)"/><circle cx="367.2" cy="213.8" r="143.5" fill="url(#ge2manglow)"/><circle cx="367.2" cy="213.8" r="44.8" fill="#fff6dc" opacity="0.96"/><g transform="translate(366.9 80.9)" fill="#ffffff" opacity="0.2"><ellipse cx="0" cy="0" rx="100.6" ry="23.2"/><ellipse cx="-47.7" cy="-19.5" rx="35.8" ry="26.5"/><ellipse cx="10.4" cy="-18" rx="29" ry="15.2"/><ellipse cx="49.2" cy="-8.5" rx="30.7" ry="17.1"/></g><g transform="translate(356.9 246)" fill="#ffffff" opacity="0.2"><ellipse cx="0" cy="0" rx="151.2" ry="30.9"/><ellipse cx="-51.1" cy="-9.8" rx="53.9" ry="30.6"/><ellipse cx="-65.1" cy="-26.3" rx="45.3" ry="24.2"/><ellipse cx="41.7" cy="-37" rx="56.3" ry="45"/><ellipse cx="9.9" cy="-13.9" rx="31.7" ry="19.9"/></g><g transform="translate(1161 162.2)" fill="#ffffff" opacity="0.2"><ellipse cx="0" cy="0" rx="99.5" ry="15"/><ellipse cx="14.6" cy="-7" rx="20.3" ry="16.3"/><ellipse cx="1.2" cy="-20.9" rx="39" ry="21.4"/><ellipse cx="64.2" cy="-7.7" rx="35.6" ry="26.2"/><ellipse cx="-27.2" cy="-7.9" rx="34.4" ry="19.8"/><ellipse cx="-50.8" cy="-8" rx="29.2" ry="21.9"/></g><path d="M862.1 248.8 q6.2 -6.2 12.3 0 q6.2 -6.2 12.3 0" stroke="#1d2a38" stroke-width="1.8" fill="none" opacity="0.5"/><path d="M839.5 180.1 q7.4 -7.4 14.8 0 q7.4 -7.4 14.8 0" stroke="#1d2a38" stroke-width="1.8" fill="none" opacity="0.4"/><path d="M997.9 130.9 q4 -4 7.9 0 q4 -4 7.9 0" stroke="#1d2a38" stroke-width="1.8" fill="none" opacity="0.7"/><path d="M806.5 137.3 q6.3 -6.3 12.7 0 q6.3 -6.3 12.7 0" stroke="#1d2a38" stroke-width="1.8" fill="none" opacity="0.6"/><rect x="0" y="344.8" width="1200" height="455.2" fill="#4d6c88"/><path d="M-40 360.7 C54.5 360.7 54.5 358.8 109.1 358.8 C163.6 358.8 163.6 360.6 218.2 360.6 C272.7 360.6 272.7 356.4 327.3 356.4 C381.8 356.4 381.8 361.2 436.4 361.2 C490.9 361.2 490.9 358.9 545.5 358.9 C600 358.9 600 356.6 654.5 356.6 C709.1 356.6 709.1 356.6 763.6 356.6 C818.2 356.6 818.2 355.9 872.7 355.9 C927.3 355.9 927.3 354 981.8 354 C1036.4 354 1036.4 354.4 1090.9 354.4 C1145.5 354.4 1145.5 356.1 1200 356.1 L1240 840 L-40 840 Z" fill="#9d936d"/><rect x="334.4" y="317.1" width="4.8" height="43.1" fill="#9d936d"/><circle cx="351.5" cy="307.2" r="14" fill="#9d936d"/><circle cx="349.8" cy="290.7" r="21" fill="#9d936d"/><circle cx="350.8" cy="287.6" r="18" fill="#9d936d"/><rect x="771.2" y="325.2" width="4.1" height="36.8" fill="#9d936d"/><circle cx="768.4" cy="307.9" r="22.8" fill="#9d936d"/><circle cx="771.9" cy="314.4" r="20.3" fill="#9d936d"/><circle cx="783.3" cy="308.5" r="20.9" fill="#9d936d"/><circle cx="785.2" cy="307.7" r="25.8" fill="#9d936d"/><circle cx="768.1" cy="319.8" r="16.1" fill="#9d936d"/><rect x="594.3" y="339.7" width="3" height="26.8" fill="#9d936d"/><circle cx="606" cy="338.5" r="9" fill="#9d936d"/><circle cx="598.3" cy="330.3" r="9.5" fill="#9d936d"/><circle cx="589.6" cy="331.3" r="10.7" fill="#9d936d"/><circle cx="596.1" cy="322.9" r="9.8" fill="#9d936d"/><circle cx="597.1" cy="331.1" r="11.8" fill="#9d936d"/><rect x="690.9" y="315" width="4.7" height="42.3" fill="#9d936d"/><circle cx="676.5" cy="304" r="19.8" fill="#9d936d"/><circle cx="705.4" cy="290" r="22.1" fill="#9d936d"/><circle cx="670.9" cy="296.7" r="20.4" fill="#9d936d"/><circle cx="703.6" cy="308.8" r="21.2" fill="#9d936d"/><rect x="695.4" y="334.1" width="3.2" height="28.8" fill="#9d936d"/><circle cx="709.4" cy="322.2" r="14" fill="#9d936d"/><circle cx="699.2" cy="316.1" r="12.7" fill="#9d936d"/><circle cx="702.7" cy="322.7" r="15.4" fill="#9d936d"/><circle cx="690.8" cy="331.7" r="13" fill="#9d936d"/><circle cx="693.5" cy="321.9" r="11.6" fill="#9d936d"/><rect x="1162.5" y="313.3" width="5.4" height="47.8" fill="#9d936d"/><circle cx="1151.8" cy="294.9" r="15.2" fill="#9d936d"/><circle cx="1184.1" cy="284.7" r="17.6" fill="#9d936d"/><circle cx="1164.4" cy="299" r="22" fill="#9d936d"/><rect x="170.7" y="328.2" width="4" height="35.4" fill="#9d936d"/><circle cx="188.2" cy="309.5" r="19.6" fill="#9d936d"/><circle cx="156.3" cy="317.5" r="16.6" fill="#9d936d"/><circle cx="188.6" cy="308.7" r="12.5" fill="#9d936d"/><rect x="74.4" y="338.4" width="3" height="26.9" fill="#9d936d"/><circle cx="75" cy="319.8" r="11.2" fill="#9d936d"/><circle cx="65.2" cy="331.2" r="10.7" fill="#9d936d"/><circle cx="84.3" cy="336.8" r="11.7" fill="#9d936d"/><rect x="370.7" y="326.4" width="3.6" height="32.3" fill="#9d936d"/><circle cx="389.1" cy="316.7" r="14.9" fill="#9d936d"/><circle cx="365.6" cy="318.2" r="19" fill="#9d936d"/><circle cx="376.7" cy="324.1" r="16.7" fill="#9d936d"/><circle cx="374.2" cy="321.7" r="18.6" fill="#9d936d"/><circle cx="384.1" cy="303.5" r="16.4" fill="#9d936d"/><rect x="516.5" y="314.2" width="5" height="44.5" fill="#9d936d"/><circle cx="522.3" cy="283.2" r="14.3" fill="#9d936d"/><circle cx="521.1" cy="298.6" r="20.6" fill="#9d936d"/><circle cx="514.5" cy="303.4" r="17.6" fill="#9d936d"/><rect x="315.7" y="326.8" width="3.8" height="34" fill="#9d936d"/><circle cx="321.3" cy="304.1" r="19.7" fill="#9d936d"/><circle cx="302" cy="315.1" r="14.4" fill="#9d936d"/><circle cx="302.9" cy="303.4" r="14.9" fill="#9d936d"/><circle cx="312.7" cy="317.1" r="18.6" fill="#9d936d"/><rect x="976.6" y="331.3" width="3.8" height="34" fill="#9d936d"/><circle cx="963.5" cy="312.8" r="15.4" fill="#9d936d"/><circle cx="989.9" cy="327.2" r="14.2" fill="#9d936d"/><circle cx="998" cy="323.5" r="19.2" fill="#9d936d"/><circle cx="968.3" cy="322.2" r="21.1" fill="#9d936d"/><circle cx="966.7" cy="311.7" r="15.1" fill="#9d936d"/><rect x="600.3" y="329.3" width="4" height="36" fill="#9d936d"/><circle cx="592.7" cy="324.4" r="18.4" fill="#9d936d"/><circle cx="614.9" cy="326.1" r="17.2" fill="#9d936d"/><circle cx="612.1" cy="320" r="23.7" fill="#9d936d"/><circle cx="587.3" cy="325.9" r="23.5" fill="#9d936d"/><circle cx="623" cy="319.5" r="21.1" fill="#9d936d"/><rect x="-8.8" y="327.6" width="4.2" height="37.3" fill="#9d936d"/><circle cx="-17.2" cy="323.2" r="15.3" fill="#9d936d"/><circle cx="8.1" cy="308.8" r="14.8" fill="#9d936d"/><circle cx="1.6" cy="323.4" r="19.5" fill="#9d936d"/><circle cx="-3.2" cy="319.7" r="18.2" fill="#9d936d"/><circle cx="-8.4" cy="322" r="13.1" fill="#9d936d"/><rect x="1021.6" y="317.7" width="5" height="44.9" fill="#9d936d"/><circle cx="1005.7" cy="307.8" r="18.9" fill="#9d936d"/><circle cx="1007.9" cy="289" r="15.6" fill="#9d936d"/><circle cx="1016" cy="293.3" r="16.1" fill="#9d936d"/><circle cx="1043.7" cy="306.1" r="19.1" fill="#9d936d"/><rect x="640.8" y="327.4" width="3.6" height="32.2" fill="#9d936d"/><circle cx="636.9" cy="318.2" r="13.4" fill="#9d936d"/><circle cx="632.7" cy="320.1" r="16.3" fill="#9d936d"/><circle cx="656.4" cy="311.6" r="18.9" fill="#9d936d"/><rect x="1097.8" y="330.2" width="3.1" height="27.3" fill="#9d936d"/><circle cx="1094.5" cy="324.8" r="11.2" fill="#9d936d"/><circle cx="1092.3" cy="321.2" r="10.7" fill="#9d936d"/><circle cx="1100" cy="319" r="8.8" fill="#9d936d"/><circle cx="1104.2" cy="319.3" r="12.7" fill="#9d936d"/><rect x="513.1" y="329.5" width="3.1" height="28.1" fill="#9d936d"/><circle cx="505.1" cy="320.3" r="9.6" fill="#9d936d"/><circle cx="521.7" cy="316.1" r="9.5" fill="#9d936d"/><circle cx="509.8" cy="319" r="10.5" fill="#9d936d"/><circle cx="527.4" cy="319.2" r="15.3" fill="#9d936d"/><rect x="1083.7" y="323.3" width="4.5" height="40.1" fill="#9d936d"/><circle cx="1098.6" cy="305.9" r="20.3" fill="#9d936d"/><circle cx="1095.6" cy="319.8" r="19.7" fill="#9d936d"/><circle cx="1101" cy="296.7" r="16.8" fill="#9d936d"/><circle cx="1099" cy="318.5" r="18.9" fill="#9d936d"/><circle cx="1073" cy="300.8" r="19.8" fill="#9d936d"/><rect x="1089.2" y="326.6" width="3.9" height="34.6" fill="#9d936d"/><circle cx="1107.5" cy="322.5" r="16.7" fill="#9d936d"/><circle cx="1099" cy="321.6" r="13.8" fill="#9d936d"/><circle cx="1089.8" cy="323.6" r="15.1" fill="#9d936d"/><circle cx="1109.2" cy="310.3" r="14.4" fill="#9d936d"/><circle cx="1109.7" cy="302" r="14.4" fill="#9d936d"/><rect x="319.5" y="317.3" width="4.5" height="40.6" fill="#9d936d"/><circle cx="338.2" cy="314.2" r="20.2" fill="#9d936d"/><circle cx="309.7" cy="292" r="22.4" fill="#9d936d"/><circle cx="311.4" cy="301.2" r="28.5" fill="#9d936d"/><circle cx="314.8" cy="294.5" r="23.5" fill="#9d936d"/><circle cx="338.8" cy="291.5" r="27.1" fill="#9d936d"/><rect x="1008.7" y="328.7" width="4.2" height="37.1" fill="#9d936d"/><circle cx="998.4" cy="312.9" r="16.9" fill="#9d936d"/><circle cx="1009.2" cy="315.2" r="18.3" fill="#9d936d"/><circle cx="1009.9" cy="327.1" r="20.3" fill="#9d936d"/><circle cx="1004.3" cy="315.2" r="18.2" fill="#9d936d"/><path d="M-40 419.5 C54.5 419.5 54.5 417.4 109.1 417.4 C163.6 417.4 163.6 419.3 218.2 419.3 C272.7 419.3 272.7 421.3 327.3 421.3 C381.8 421.3 381.8 425.2 436.4 425.2 C490.9 425.2 490.9 428 545.5 428 C600 428 600 428 654.5 428 C709.1 428 709.1 423.9 763.6 423.9 C818.2 423.9 818.2 425.1 872.7 425.1 C927.3 425.1 927.3 427.4 981.8 427.4 C1036.4 427.4 1036.4 427.5 1090.9 427.5 C1145.5 427.5 1145.5 428 1200 428 L1240 840 L-40 840 Z" fill="#6f7650"/><rect x="839.1" y="374.5" width="5.2" height="46.1" fill="#6f7650"/><circle cx="861.3" cy="355.4" r="16.5" fill="#6f7650"/><circle cx="849.6" cy="371.4" r="23.9" fill="#6f7650"/><circle cx="823.5" cy="354.6" r="16.5" fill="#6f7650"/><rect x="-2.4" y="366.1" width="6" height="53.5" fill="#6f7650"/><circle cx="-20.9" cy="330.9" r="26.4" fill="#6f7650"/><circle cx="19.4" cy="354.7" r="32.7" fill="#6f7650"/><circle cx="-22.3" cy="360.2" r="35.7" fill="#6f7650"/><circle cx="25.9" cy="338.1" r="37.2" fill="#6f7650"/><rect x="219.7" y="386.2" width="4.3" height="38.8" fill="#6f7650"/><circle cx="236.5" cy="368.9" r="21.4" fill="#6f7650"/><circle cx="236.6" cy="370.7" r="20.6" fill="#6f7650"/><circle cx="228" cy="363.2" r="14.5" fill="#6f7650"/><circle cx="233.1" cy="359.6" r="18.3" fill="#6f7650"/><rect x="1055.9" y="376.4" width="5.5" height="49.5" fill="#6f7650"/><circle cx="1056.5" cy="364.5" r="26.7" fill="#6f7650"/><circle cx="1075" cy="355" r="22.8" fill="#6f7650"/><circle cx="1053.3" cy="345.6" r="29.3" fill="#6f7650"/><rect x="374.5" y="369.8" width="5.4" height="48.3" fill="#6f7650"/><circle cx="394.3" cy="345.6" r="23.7" fill="#6f7650"/><circle cx="373.1" cy="353.9" r="18.5" fill="#6f7650"/><circle cx="375.3" cy="356.9" r="25.9" fill="#6f7650"/><circle cx="374.9" cy="342.5" r="21" fill="#6f7650"/><circle cx="370.1" cy="352.5" r="25.3" fill="#6f7650"/><rect x="789" y="385.6" width="4.3" height="38.6" fill="#6f7650"/><circle cx="774" cy="382.3" r="20.4" fill="#6f7650"/><circle cx="775.3" cy="380.9" r="21" fill="#6f7650"/><circle cx="806.3" cy="366.8" r="17.6" fill="#6f7650"/><circle cx="806.6" cy="358.7" r="14" fill="#6f7650"/><rect x="524.5" y="374.1" width="4.7" height="42.4" fill="#6f7650"/><circle cx="548.7" cy="344.5" r="21.9" fill="#6f7650"/><circle cx="510.9" cy="358.7" r="20.2" fill="#6f7650"/><circle cx="507.7" cy="355.4" r="18.4" fill="#6f7650"/><circle cx="535" cy="347" r="18.8" fill="#6f7650"/><circle cx="550.4" cy="344.3" r="26.4" fill="#6f7650"/><rect x="1091.9" y="390.9" width="3.5" height="31.2" fill="#6f7650"/><circle cx="1088.9" cy="388.1" r="14.6" fill="#6f7650"/><circle cx="1108.6" cy="377.3" r="16.3" fill="#6f7650"/><circle cx="1100" cy="389" r="12.5" fill="#6f7650"/><rect x="756.4" y="391.1" width="3.6" height="31.8" fill="#6f7650"/><circle cx="741.8" cy="388.5" r="21.9" fill="#6f7650"/><circle cx="761" cy="376.7" r="17.6" fill="#6f7650"/><circle cx="751.6" cy="379.6" r="17.6" fill="#6f7650"/><rect x="1026.3" y="385.4" width="3.7" height="32.7" fill="#6f7650"/><circle cx="1010.9" cy="366.4" r="20.7" fill="#6f7650"/><circle cx="1037.4" cy="380.5" r="13.6" fill="#6f7650"/><circle cx="1013.2" cy="379" r="20.1" fill="#6f7650"/><rect x="505.1" y="388.9" width="4.1" height="36.4" fill="#6f7650"/><circle cx="499.1" cy="384.3" r="24.9" fill="#6f7650"/><circle cx="490.9" cy="385" r="22.8" fill="#6f7650"/><circle cx="483.9" cy="369.9" r="19" fill="#6f7650"/><circle cx="511.9" cy="372.4" r="20" fill="#6f7650"/><rect x="802.7" y="374.1" width="4.8" height="43.2" fill="#6f7650"/><circle cx="806.7" cy="346" r="17.9" fill="#6f7650"/><circle cx="803.5" cy="366.7" r="24.5" fill="#6f7650"/><circle cx="807.2" cy="359" r="16.5" fill="#6f7650"/><circle cx="806" cy="357.8" r="20.2" fill="#6f7650"/><rect x="1218.1" y="381.4" width="4.5" height="40.6" fill="#6f7650"/><circle cx="1208" cy="368.5" r="19.3" fill="#6f7650"/><circle cx="1206.2" cy="371.7" r="17.2" fill="#6f7650"/><circle cx="1242.3" cy="370.3" r="24.1" fill="#6f7650"/><circle cx="1226.9" cy="364.6" r="19.4" fill="#6f7650"/><rect x="822.6" y="387.8" width="3.9" height="35.2" fill="#6f7650"/><circle cx="845.6" cy="383.8" r="19.7" fill="#6f7650"/><circle cx="835.4" cy="378.9" r="18.1" fill="#6f7650"/><circle cx="819.9" cy="368.9" r="20.4" fill="#6f7650"/><circle cx="808.9" cy="386.2" r="20.1" fill="#6f7650"/><rect x="530" y="385" width="4.1" height="36.4" fill="#6f7650"/><circle cx="552.5" cy="366.2" r="24.2" fill="#6f7650"/><circle cx="551.7" cy="363" r="20.5" fill="#6f7650"/><circle cx="511.3" cy="363.2" r="17.1" fill="#6f7650"/><rect x="915" y="363.2" width="6.4" height="56.9" fill="#6f7650"/><circle cx="910.9" cy="333.1" r="30.5" fill="#6f7650"/><circle cx="886.9" cy="357.2" r="34.1" fill="#6f7650"/><circle cx="901" cy="324.7" r="30.1" fill="#6f7650"/><rect x="1115.2" y="375.2" width="4.6" height="41" fill="#6f7650"/><circle cx="1131.1" cy="362.4" r="13.4" fill="#6f7650"/><circle cx="1113.4" cy="360.8" r="14.1" fill="#6f7650"/><circle cx="1102.7" cy="364.1" r="17.6" fill="#6f7650"/><circle cx="1128.2" cy="361.9" r="21" fill="#6f7650"/><circle cx="1133.2" cy="347" r="17.8" fill="#6f7650"/><rect x="48.3" y="378" width="4.6" height="40.8" fill="#6f7650"/><circle cx="67" cy="361.7" r="26.2" fill="#6f7650"/><circle cx="28" cy="367.8" r="24.8" fill="#6f7650"/><circle cx="48.5" cy="375.8" r="26.9" fill="#6f7650"/><circle cx="38.6" cy="350.3" r="25.1" fill="#6f7650"/><path d="M-40 432.7 C54.5 432.7 54.5 436.4 109.1 436.4 C163.6 436.4 163.6 435.4 218.2 435.4 C272.7 435.4 272.7 431.6 327.3 431.6 C381.8 431.6 381.8 429.5 436.4 429.5 C490.9 429.5 490.9 424.9 545.5 424.9 C600 424.9 600 425.4 654.5 425.4 C709.1 425.4 709.1 429.4 763.6 429.4 C818.2 429.4 818.2 425.4 872.7 425.4 C927.3 425.4 927.3 426.3 981.8 426.3 C1036.4 426.3 1036.4 424.7 1090.9 424.7 C1145.5 424.7 1145.5 421.1 1200 421.1 L1240 840 L-40 840 Z" fill="#405933"/><rect x="161.2" y="369.2" width="7.4" height="66.2" fill="#405933"/><circle cx="177.4" cy="348.5" r="34.3" fill="#405933"/><circle cx="176.3" cy="345.6" r="31.9" fill="#405933"/><circle cx="154.2" cy="354.9" r="24.1" fill="#405933"/><rect x="468.3" y="366.1" width="7.8" height="69.6" fill="#405933"/><circle cx="434.9" cy="318" r="43.9" fill="#405933"/><circle cx="448.1" cy="330" r="29" fill="#405933"/><circle cx="493.2" cy="360.1" r="28.5" fill="#405933"/><circle cx="479.4" cy="316.3" r="28.1" fill="#405933"/><circle cx="440.8" cy="337.7" r="33.5" fill="#405933"/><rect x="66.6" y="391.1" width="5.6" height="49.6" fill="#405933"/><circle cx="53.4" cy="376.1" r="20.9" fill="#405933"/><circle cx="49.7" cy="369.7" r="18.9" fill="#405933"/><circle cx="53.5" cy="368.8" r="22.8" fill="#405933"/><circle cx="89.8" cy="383" r="19.6" fill="#405933"/><circle cx="61.9" cy="366" r="22.8" fill="#405933"/><rect x="168.7" y="394.3" width="5.1" height="45.6" fill="#405933"/><circle cx="161.7" cy="368" r="14.4" fill="#405933"/><circle cx="186.8" cy="389.5" r="20.2" fill="#405933"/><circle cx="167.2" cy="378.9" r="14.5" fill="#405933"/><circle cx="168.9" cy="362" r="19.4" fill="#405933"/><rect x="616.5" y="374.7" width="7" height="62.1" fill="#405933"/><circle cx="592.2" cy="366.7" r="40.7" fill="#405933"/><circle cx="650.5" cy="338.9" r="38.1" fill="#405933"/><circle cx="626.5" cy="333.8" r="36" fill="#405933"/><rect x="947" y="400.3" width="4.7" height="42.4" fill="#405933"/><circle cx="936.2" cy="373.8" r="14.8" fill="#405933"/><circle cx="953.4" cy="382.8" r="14.5" fill="#405933"/><circle cx="939.5" cy="388.6" r="22.1" fill="#405933"/><circle cx="959.1" cy="380" r="19" fill="#405933"/><circle cx="937.6" cy="392.2" r="14.9" fill="#405933"/><rect x="432.8" y="372.7" width="7.4" height="66" fill="#405933"/><circle cx="447.8" cy="340.9" r="31.9" fill="#405933"/><circle cx="453.2" cy="364.3" r="23.8" fill="#405933"/><circle cx="419" cy="330.2" r="28.6" fill="#405933"/><rect x="1071" y="381.7" width="6.5" height="57.8" fill="#405933"/><circle cx="1098.9" cy="374.2" r="25" fill="#405933"/><circle cx="1068.1" cy="378.4" r="33.7" fill="#405933"/><circle cx="1079.5" cy="356.8" r="29.5" fill="#405933"/><rect x="561.2" y="374.4" width="7.7" height="69" fill="#405933"/><circle cx="548.6" cy="332.4" r="35.6" fill="#405933"/><circle cx="532.1" cy="361.6" r="39.6" fill="#405933"/><circle cx="587.4" cy="328.5" r="36.7" fill="#405933"/><rect x="105.7" y="381" width="6.7" height="60" fill="#405933"/><circle cx="110" cy="346.3" r="24.5" fill="#405933"/><circle cx="91.9" cy="342.8" r="24.9" fill="#405933"/><circle cx="86" cy="349.6" r="32.3" fill="#405933"/><rect x="1112.7" y="382.9" width="6.3" height="56.3" fill="#405933"/><circle cx="1099.6" cy="353" r="23.7" fill="#405933"/><circle cx="1101.7" cy="375.8" r="25.7" fill="#405933"/><circle cx="1101.1" cy="346" r="28.7" fill="#405933"/><circle cx="1121.7" cy="354" r="28.6" fill="#405933"/><rect x="754.6" y="375.8" width="6.8" height="60.6" fill="#405933"/><circle cx="769" cy="350.9" r="29.9" fill="#405933"/><circle cx="732.6" cy="355.7" r="44.1" fill="#405933"/><circle cx="750.4" cy="357.3" r="32.6" fill="#405933"/><rect x="421.6" y="406.9" width="4" height="35.3" fill="#405933"/><circle cx="416.9" cy="396" r="16" fill="#405933"/><circle cx="444.9" cy="395.7" r="22.9" fill="#405933"/><circle cx="415.1" cy="393.4" r="19.6" fill="#405933"/><rect x="427.1" y="396" width="5.3" height="46.9" fill="#405933"/><circle cx="409.1" cy="390.3" r="22" fill="#405933"/><circle cx="407.4" cy="370.2" r="30.2" fill="#405933"/><circle cx="406.6" cy="367.8" r="28.9" fill="#405933"/><circle cx="451.6" cy="368.2" r="22.7" fill="#405933"/><rect x="0" y="547.5" width="1200" height="252.5" fill="#3e576e"/><rect x="0" y="559.5" width="1200" height="2.5" fill="#ffb680" opacity="0.1"/><rect x="0" y="581.5" width="1200" height="2.5" fill="#ffb680" opacity="0.1"/><rect x="0" y="603.5" width="1200" height="2.5" fill="#ffb680" opacity="0.2"/><rect x="0" y="625.5" width="1200" height="2.5" fill="#ffb680" opacity="0.2"/><rect x="0" y="647.5" width="1200" height="2.5" fill="#ffb680" opacity="0.2"/><rect x="0" y="669.5" width="1200" height="2.5" fill="#ffb680" opacity="0.3"/><rect x="483" y="544" width="2.5" height="10.2" fill="#1d2a38" opacity="0.8"/><rect x="265.9" y="750.6" width="1.9" height="15.3" fill="#1d2a38" opacity="0.6"/><rect x="784.4" y="587.2" width="3.4" height="15.3" fill="#1d2a38" opacity="0.5"/><rect x="980.1" y="554" width="3" height="12.5" fill="#1d2a38" opacity="0.6"/><rect x="1092.7" y="708.4" width="2.6" height="33" fill="#1d2a38" opacity="0.4"/><rect x="815.3" y="574.3" width="2.3" height="5.3" fill="#1d2a38" opacity="0.8"/><rect x="706.7" y="737.3" width="3.3" height="31.3" fill="#1d2a38" opacity="0.5"/><rect x="495.3" y="704.3" width="2.4" height="20.2" fill="#1d2a38" opacity="0.5"/><rect x="80.6" y="617" width="3" height="20" fill="#1d2a38" opacity="0.7"/><rect x="1113.1" y="756.1" width="2.6" height="29" fill="#1d2a38" opacity="0.6"/><rect x="622.1" y="579.6" width="2.9" height="17.1" fill="#1d2a38" opacity="0.7"/><rect x="608.7" y="688.1" width="3" height="28.8" fill="#1d2a38" opacity="0.7"/><rect x="758.1" y="621.4" width="2.2" height="17.9" fill="#1d2a38" opacity="0.7"/><rect x="272.6" y="630.7" width="2.4" height="7.9" fill="#1d2a38" opacity="0.5"/><rect x="1098.3" y="585.5" width="2.2" height="11.8" fill="#1d2a38" opacity="0.7"/><rect x="625.7" y="626" width="2.8" height="22.1" fill="#1d2a38" opacity="0.8"/><rect x="989" y="668.9" width="2.7" height="16.8" fill="#1d2a38" opacity="0.4"/><rect x="272.6" y="740.9" width="2.8" height="38" fill="#1d2a38" opacity="0.4"/><rect x="626.1" y="591.3" width="2.3" height="10" fill="#1d2a38" opacity="0.6"/><rect x="102.3" y="694.6" width="2.1" height="27.2" fill="#1d2a38" opacity="0.7"/><rect x="693.4" y="744.2" width="2.1" height="25.5" fill="#1d2a38" opacity="0.6"/><rect x="1087.7" y="630.8" width="3" height="16.9" fill="#1d2a38" opacity="0.5"/><rect x="894.5" y="617.5" width="3.2" height="15.5" fill="#1d2a38" opacity="0.6"/><rect x="1163.5" y="720.5" width="3.5" height="10.8" fill="#1d2a38" opacity="0.5"/><rect x="1006.1" y="640.2" width="2.5" height="10.5" fill="#1d2a38" opacity="0.8"/><rect x="802.3" y="706.5" width="2" height="26.6" fill="#1d2a38" opacity="0.6"/><rect x="219.5" y="571.4" width="3.4" height="4.6" fill="#1d2a38" opacity="0.4"/><rect x="1047.4" y="679" width="1.9" height="17.6" fill="#1d2a38" opacity="0.5"/><rect x="1002.2" y="627.1" width="1.6" height="15.5" fill="#1d2a38" opacity="0.7"/><rect x="1185.6" y="672" width="2.1" height="21.6" fill="#1d2a38" opacity="0.4"/><rect x="863.5" y="651.8" width="2.9" height="19.7" fill="#1d2a38" opacity="0.5"/><rect x="469.7" y="685.8" width="2.3" height="15" fill="#1d2a38" opacity="0.8"/><rect x="519.8" y="658" width="3.4" height="25.2" fill="#1d2a38" opacity="0.5"/><rect x="794.9" y="572.3" width="3" height="6.3" fill="#1d2a38" opacity="0.4"/><rect x="1198.5" y="628.3" width="2.7" height="13.5" fill="#1d2a38" opacity="0.7"/><rect x="457.1" y="602.8" width="3.6" height="12.3" fill="#1d2a38" opacity="0.8"/><rect x="90.6" y="645.6" width="2.8" height="17.4" fill="#1d2a38" opacity="0.4"/><rect x="1084.9" y="552.2" width="3" height="11" fill="#1d2a38" opacity="0.7"/><rect x="190.4" y="596.8" width="2.3" height="6.6" fill="#1d2a38" opacity="0.6"/><rect x="148.4" y="559.2" width="2.6" height="13" fill="#1d2a38" opacity="0.5"/><rect x="1154" y="731.3" width="3.3" height="25.6" fill="#1d2a38" opacity="0.6"/><rect x="360.4" y="648.5" width="2.7" height="16" fill="#1d2a38" opacity="0.4"/><rect x="848.3" y="754.5" width="2.3" height="13.6" fill="#1d2a38" opacity="0.7"/><rect x="1066.5" y="759.4" width="2.5" height="14.3" fill="#1d2a38" opacity="0.5"/><rect x="541" y="655.1" width="2.9" height="8.6" fill="#1d2a38" opacity="0.5"/><rect x="1000" y="606" width="1.7" height="9.7" fill="#1d2a38" opacity="0.5"/><rect x="796.8" y="635" width="3.6" height="23.7" fill="#1d2a38" opacity="0.6"/><rect x="776.8" y="668.4" width="2.6" height="9" fill="#1d2a38" opacity="0.4"/><rect x="712.7" y="685.1" width="3.3" height="30" fill="#1d2a38" opacity="0.5"/><rect x="271.2" y="545.3" width="1.7" height="12.4" fill="#1d2a38" opacity="0.6"/><rect x="63.8" y="738.7" width="3.2" height="17.4" fill="#1d2a38" opacity="0.4"/><rect x="1179.9" y="577" width="2.5" height="16" fill="#1d2a38" opacity="0.7"/><rect x="464" y="580.9" width="2.5" height="5.5" fill="#1d2a38" opacity="0.5"/><rect x="999.4" y="598.9" width="2.6" height="7.1" fill="#1d2a38" opacity="0.4"/><rect x="184.6" y="615.7" width="3.3" height="22.8" fill="#1d2a38" opacity="0.7"/><rect x="504.5" y="742.3" width="2" height="28.4" fill="#1d2a38" opacity="0.4"/><rect x="936.2" y="560.6" width="2.4" height="8.4" fill="#1d2a38" opacity="0.6"/><rect x="1161.5" y="621.3" width="3.5" height="21.7" fill="#1d2a38" opacity="0.8"/><rect x="1164" y="753.6" width="2.1" height="12" fill="#1d2a38" opacity="0.5"/><rect x="465" y="573.5" width="1.9" height="9.5" fill="#1d2a38" opacity="0.7"/><rect x="781.2" y="626.1" width="2.1" height="13.9" fill="#1d2a38" opacity="0.4"/><rect x="22.9" y="737.5" width="2" height="23.6" fill="#1d2a38" opacity="0.4"/><rect x="80" y="651.6" width="2.8" height="16.1" fill="#1d2a38" opacity="0.4"/><rect x="567.4" y="691" width="2.8" height="28.9" fill="#1d2a38" opacity="0.7"/><rect x="1161.1" y="620.9" width="3" height="22.7" fill="#1d2a38" opacity="0.4"/><rect x="820.9" y="721.2" width="2.6" height="16.8" fill="#1d2a38" opacity="0.5"/><rect x="975.9" y="554.5" width="2.7" height="13.7" fill="#1d2a38" opacity="0.5"/><rect x="224.8" y="754.1" width="3.3" height="24.1" fill="#1d2a38" opacity="0.6"/><rect x="87.5" y="634.6" width="2.5" height="6.3" fill="#1d2a38" opacity="0.4"/><rect x="300.1" y="557.1" width="2.5" height="14.8" fill="#1d2a38" opacity="0.4"/><rect x="101.8" y="751.6" width="3.1" height="19" fill="#1d2a38" opacity="0.4"/><rect x="93.5" y="738.5" width="2.8" height="25" fill="#1d2a38" opacity="0.6"/><rect x="299.3" y="593.7" width="2.3" height="14.8" fill="#1d2a38" opacity="0.7"/><rect x="900" y="676" width="2.3" height="15.5" fill="#1d2a38" opacity="0.7"/><rect x="761.3" y="653.6" width="2.8" height="27.9" fill="#1d2a38" opacity="0.7"/><rect x="319.4" y="558.1" width="1.9" height="8" fill="#1d2a38" opacity="0.6"/><rect x="1079.7" y="575.9" width="1.7" height="16.6" fill="#1d2a38" opacity="0.8"/><rect x="724.8" y="646.9" width="1.7" height="10.7" fill="#1d2a38" opacity="0.6"/><rect x="506.1" y="626.5" width="2.3" height="10.8" fill="#1d2a38" opacity="0.4"/><rect x="1172.7" y="709" width="3.1" height="30.5" fill="#1d2a38" opacity="0.8"/><rect x="240.3" y="709.7" width="3.3" height="17.5" fill="#1d2a38" opacity="0.7"/><rect x="990.3" y="699.7" width="2.3" height="20.2" fill="#1d2a38" opacity="0.7"/><rect x="950.9" y="636.9" width="3.4" height="15.9" fill="#1d2a38" opacity="0.7"/><rect x="1124" y="573.1" width="2.3" height="7.7" fill="#1d2a38" opacity="0.6"/><rect x="977.8" y="690.6" width="2.1" height="9.3" fill="#1d2a38" opacity="0.6"/><rect x="178.7" y="579.5" width="1.9" height="4.9" fill="#1d2a38" opacity="0.8"/><rect x="1003.2" y="561" width="3.5" height="5" fill="#1d2a38" opacity="0.5"/><rect x="1009.7" y="690.8" width="1.6" height="14.7" fill="#1d2a38" opacity="0.7"/><rect x="465.1" y="546.5" width="2.5" height="9" fill="#1d2a38" opacity="0.5"/><rect x="872.7" y="714.3" width="2" height="18.3" fill="#1d2a38" opacity="0.5"/><rect x="293" y="645.4" width="3.6" height="8.4" fill="#1d2a38" opacity="0.6"/><rect x="1057.4" y="628.8" width="3.1" height="23.9" fill="#1d2a38" opacity="0.8"/><rect x="84.9" y="728.3" width="3.3" height="26.4" fill="#1d2a38" opacity="0.5"/><rect x="914.1" y="691.4" width="1.8" height="10.4" fill="#1d2a38" opacity="0.6"/><rect x="124.5" y="581" width="2" height="6.1" fill="#1d2a38" opacity="0.7"/><rect x="415.4" y="719.4" width="3" height="14.7" fill="#1d2a38" opacity="0.7"/><rect x="758" y="568.6" width="2.6" height="11.2" fill="#1d2a38" opacity="0.4"/><rect x="629.2" y="595.1" width="2.5" height="11.9" fill="#1d2a38" opacity="0.8"/><rect x="791.5" y="573.4" width="2.6" height="11.5" fill="#1d2a38" opacity="0.8"/><rect x="160.8" y="639.4" width="3.2" height="11" fill="#1d2a38" opacity="0.6"/><rect x="949.5" y="556.4" width="3.3" height="3.7" fill="#1d2a38" opacity="0.7"/><rect x="1184.8" y="630.5" width="2.9" height="21.5" fill="#1d2a38" opacity="0.5"/><rect x="275.1" y="677.5" width="3.5" height="14.8" fill="#1d2a38" opacity="0.8"/><rect x="1051" y="606.2" width="2.5" height="21.1" fill="#1d2a38" opacity="0.8"/><rect x="173.1" y="758.4" width="2.4" height="23" fill="#1d2a38" opacity="0.7"/><rect x="1107.8" y="625.6" width="2.8" height="14.1" fill="#1d2a38" opacity="0.5"/><rect x="60.6" y="683.6" width="2.7" height="12" fill="#1d2a38" opacity="0.8"/><rect x="997.9" y="707.3" width="2.1" height="29" fill="#1d2a38" opacity="0.7"/><rect x="911.1" y="574.5" width="3.4" height="15" fill="#1d2a38" opacity="0.5"/><rect x="849.9" y="744" width="2.5" height="19.2" fill="#1d2a38" opacity="0.4"/><rect x="965.3" y="723.5" width="3.4" height="19.4" fill="#1d2a38" opacity="0.7"/><rect x="424.8" y="637.2" width="1.9" height="12" fill="#1d2a38" opacity="0.6"/><rect x="1005.2" y="630.1" width="1.7" height="18.5" fill="#1d2a38" opacity="0.6"/><rect x="748.5" y="685.6" width="2.9" height="27.2" fill="#1d2a38" opacity="0.5"/><rect x="348.5" y="569" width="1.9" height="9.6" fill="#1d2a38" opacity="0.4"/><rect x="455.5" y="583.6" width="2.2" height="8.6" fill="#1d2a38" opacity="0.4"/><rect x="157.7" y="634.1" width="3.5" height="22.1" fill="#1d2a38" opacity="0.6"/><rect x="1207.2" y="730.3" width="2.6" height="21" fill="#1d2a38" opacity="0.4"/><rect x="796.8" y="580.8" width="2.6" height="12.1" fill="#1d2a38" opacity="0.8"/><rect x="599.5" y="626.4" width="2.4" height="7.5" fill="#1d2a38" opacity="0.7"/><rect x="-8.9" y="589.8" width="2" height="12.8" fill="#1d2a38" opacity="0.6"/><rect x="122.2" y="689.8" width="3.3" height="29.1" fill="#1d2a38" opacity="0.6"/><rect x="1150.8" y="719.6" width="2.8" height="17.6" fill="#1d2a38" opacity="0.6"/><rect x="862.5" y="609.8" width="2" height="12.2" fill="#1d2a38" opacity="0.7"/><rect x="474.9" y="724.1" width="2.1" height="10.8" fill="#1d2a38" opacity="0.5"/><rect x="502.8" y="722.9" width="1.7" height="15.5" fill="#1d2a38" opacity="0.6"/><rect x="726.3" y="693.6" width="2.1" height="11.4" fill="#1d2a38" opacity="0.4"/><rect width="1200" height="800" fill="url(#ge2manvig)"/></svg>