<svg xmlns="http://www.w3.org/2000/svg" viewBox="0 0 1200 800" width="1200" height="800" preserveAspectRatio="xMidYMid slice" role="img"><title>Ghuro Bangladesh — mosque landscape</title><defs>
    <linearGradient id="g2mjmossky" x1="0" y1="0" x2="0" y2="1">
      <stop offset="0%" stop-color="#23305a"/><stop offset="25%" stop-color="#5b3f76"/><stop offset="50%" stop-color="#ad4e6c"/><stop offset="75%" stop-color="#ee8145"/><stop offset="100%" stop-color="#ffbc5e"/>
    </linearGradient>
    <radialGradient id="g2mjmosglow" cx="50%" cy="50%" r="50%">
      <stop offset="0%" stop-color="#ff9040" stop-opacity="0.85"/>
      <stop offset="100%" stop-color="#ff9040" stop-opacity="0"/>
    </radialGradient>
    <linearGradient id="g2mjmosvig" x1="0" y1="0" x2="0" y2="1">
      <stop offset="0%" stop-color="#171426" stop-opacity="0.28"/>
      <stop offset="34%" stop-color="#171426" stop-opacity="0"/>
      <stop offset="100%" stop-color="#171426" stop-opacity="0.34"/>
    </linearGradient>
  </defs><rect width="1200" height="800" fill="url(#g2mjmossky)"/><circle cx="487.9" cy="224.1" r="105.9" fill="url(#g2mjmosglow)"/><circle cx="487.9" cy="224.1" r="33.1" fill="#ffeeb4" opacity="0.96"/><g transform="translate(876 90)" fill="#ffffff" opacity="0.3"><ellipse cx="0" cy="0" rx="134.5" ry="34.3"/><ellipse cx="-37.6" cy="-6.6" rx="37.1" ry="25.9"/><ellipse cx="45.9" cy="-12.8" rx="46.8" ry="36.5"/><ellipse cx="59.1" cy="-4.7" rx="28.4" ry="23.5"/><ellipse cx="-52.1" cy="-20.9" rx="47.1" ry="39.6"/></g><g transform="translate(1189.5 105.2)" fill="#ffffff" opacity="0.2"><ellipse cx="0" cy="0" rx="187.1" ry="34.1"/><ellipse cx="-95.8" cy="-36.5" rx="53.5" ry="27.9"/><ellipse cx="64.7" cy="-27.2" rx="71.8" ry="53.2"/><ellipse cx="66.6" cy="-16.5" rx="42.3" ry="31.9"/><ellipse cx="77.7" cy="-20.2" rx="46.9" ry="34.2"/><ellipse cx="-31.6" cy="-18.2" rx="61.9" ry="45.9"/></g><path d="M-40 350 C85.7 350 85.7 348.3 171.4 348.3 C257.1 348.3 257.1 348.1 342.9 348.1 C428.6 348.1 428.6 348.4 514.3 348.4 C600 348.4 600 347.8 685.7 347.8 C771.4 347.8 771.4 346.5 857.1 346.5 C942.9 346.5 942.9 345.6 1028.6 345.6 C1114.3 345.6 1114.3 346.8 1200 346.8 L1240 840 L-40 840 Z" fill="#d07044"/><rect x="852.7" y="319.1" width="4.1" height="36.5" fill="#cc6b40"/><circle cx="859.8" cy="300.4" r="14.1" fill="#cc6b40"/><circle cx="861.9" cy="307.7" r="18.2" fill="#cc6b40"/><circle cx="854.5" cy="307.2" r="17.4" fill="#cc6b40"/><rect x="642.8" y="329.7" width="2.9" height="25.9" fill="#cc6b40"/><circle cx="655" cy="325.2" r="11.6" fill="#cc6b40"/><circle cx="652.9" cy="325.7" r="12.7" fill="#cc6b40"/><circle cx="638.7" cy="322.2" r="8.5" fill="#cc6b40"/><rect x="649.2" y="334.2" width="2.4" height="21.4" fill="#cc6b40"/><circle cx="658.2" cy="323.2" r="14.1" fill="#cc6b40"/><circle cx="655.4" cy="319.3" r="13.3" fill="#cc6b40"/><circle cx="645.9" cy="326.5" r="14.6" fill="#cc6b40"/><circle cx="659.8" cy="330.7" r="11.5" fill="#cc6b40"/><circle cx="662.7" cy="324.4" r="13.6" fill="#cc6b40"/><rect x="594.8" y="325.3" width="3.4" height="30.3" fill="#cc6b40"/><circle cx="609.1" cy="305.5" r="13.9" fill="#cc6b40"/><circle cx="586.7" cy="305.6" r="12.7" fill="#cc6b40"/><circle cx="598.5" cy="308.6" r="14.3" fill="#cc6b40"/><rect x="61.8" y="326.7" width="3.2" height="28.9" fill="#cc6b40"/><circle cx="70.9" cy="324.6" r="13.6" fill="#cc6b40"/><circle cx="56.2" cy="323.4" r="14.1" fill="#cc6b40"/><circle cx="79.7" cy="309.3" r="12.7" fill="#cc6b40"/><circle cx="71.4" cy="314.8" r="13.8" fill="#cc6b40"/><rect x="-7.8" y="335.2" width="2.3" height="20.4" fill="#cc6b40"/><circle cx="-6.1" cy="326" r="9.3" fill="#cc6b40"/><circle cx="-13.7" cy="325.4" r="10.9" fill="#cc6b40"/><circle cx="2.9" cy="330.8" r="8" fill="#cc6b40"/><circle cx="-16.2" cy="325.3" r="7.2" fill="#cc6b40"/><rect x="50.8" y="327.9" width="3.1" height="27.7" fill="#cc6b40"/><circle cx="48.5" cy="310.5" r="12.5" fill="#cc6b40"/><circle cx="51.8" cy="322.7" r="17" fill="#cc6b40"/><circle cx="41.2" cy="323.1" r="13.9" fill="#cc6b40"/><rect x="937.1" y="329" width="3" height="26.6" fill="#cc6b40"/><circle cx="925.9" cy="313.4" r="11.9" fill="#cc6b40"/><circle cx="935" cy="316.8" r="15.8" fill="#cc6b40"/><circle cx="930.7" cy="318.8" r="12.5" fill="#cc6b40"/><circle cx="932.1" cy="324.6" r="14.2" fill="#cc6b40"/><circle cx="941" cy="322.9" r="16.8" fill="#cc6b40"/><rect x="495.6" y="330.4" width="2.8" height="25.2" fill="#cc6b40"/><circle cx="501.8" cy="329.1" r="13.1" fill="#cc6b40"/><circle cx="487" cy="314.1" r="14.4" fill="#cc6b40"/><circle cx="510.5" cy="315.7" r="10.9" fill="#cc6b40"/><rect x="5.5" y="318.8" width="4.1" height="36.8" fill="#cc6b40"/><circle cx="12.7" cy="297.7" r="16.8" fill="#cc6b40"/><circle cx="6.5" cy="299.4" r="12.1" fill="#cc6b40"/><circle cx="-5.9" cy="307.1" r="13.7" fill="#cc6b40"/><circle cx="-1.8" cy="302.2" r="15" fill="#cc6b40"/><circle cx="-4.7" cy="297.3" r="13" fill="#cc6b40"/><rect x="346" y="466.3" width="430.5" height="146.1" fill="#171426"/><path d="M401 466.3 C401 387.3 506.3 387.3 506.3 466.3 Z" fill="#171426"/><rect x="448.9" y="376.5" width="9.5" height="23.2" fill="#171426"/><circle cx="453.7" cy="372.3" r="5.8" fill="#171426"/><path d="M468.5 466.3 C468.5 357.9 654 357.9 654 466.3 Z" fill="#171426"/><rect x="552.9" y="335" width="16.7" height="40.8" fill="#171426"/><circle cx="561.3" cy="327.6" r="10.2" fill="#171426"/><path d="M615.9 466.3 C615.9 389.4 721.9 389.4 721.9 466.3 Z" fill="#171426"/><rect x="664.1" y="378.3" width="9.5" height="23.3" fill="#171426"/><circle cx="668.9" cy="374" r="5.8" fill="#171426"/><path d="M372.9 612.4 L372.9 530.9 Q399.8 492.1 426.7 530.9 L426.7 612.4 Z" fill="#58514e" opacity="0.55"/><path d="M480.6 612.4 L480.6 530.9 Q507.5 492.1 534.4 530.9 L534.4 612.4 Z" fill="#58514e" opacity="0.55"/><path d="M588.2 612.4 L588.2 530.9 Q615.1 492.1 642 530.9 L642 612.4 Z" fill="#58514e" opacity="0.55"/><path d="M695.8 612.4 L695.8 530.9 Q722.7 492.1 749.6 530.9 L749.6 612.4 Z" fill="#58514e" opacity="0.55"/><rect x="305.4" y="420.6" width="15.5" height="191.8" fill="#171426"/><rect x="299.9" y="415.1" width="26.3" height="6.2" fill="#171426"/><path d="M303.5 415.1 Q313.1 394.2 322.7 415.1 Z" fill="#171426"/><rect x="312.2" y="387.2" width="1.9" height="7.7" fill="#171426"/><rect x="817.9" y="373.4" width="15.5" height="239" fill="#171426"/><rect x="812.5" y="368" width="26.3" height="6.2" fill="#171426"/><path d="M816 368 Q825.6 347 835.2 368 Z" fill="#171426"/><rect x="824.7" y="340.1" width="1.9" height="7.7" fill="#171426"/><rect x="0" y="612.4" width="1200" height="187.6" fill="#3a3a63"/><g transform="translate(0 1224.8) scale(1 -1)" opacity="0.22">
      <rect x="346" y="466.3" width="430.5" height="146.1" fill="#171426"/>
    </g><rect x="0" y="628.4" width="1200" height="2.5" fill="#ff9f52" opacity="0.1"/><rect x="0" y="652.4" width="1200" height="2.5" fill="#ff9f52" opacity="0.2"/><rect x="0" y="676.4" width="1200" height="2.5" fill="#ff9f52" opacity="0.2"/><rect x="0" y="700.4" width="1200" height="2.5" fill="#ff9f52" opacity="0.2"/><rect x="0" y="724.4" width="1200" height="2.5" fill="#ff9f52" opacity="0.3"/><rect x="0" y="748.4" width="1200" height="2.5" fill="#ff9f52" opacity="0.3"/><rect width="1200" height="800" fill="url(#g2mjmosvig)"/></svg>