<svg xmlns="http://www.w3.org/2000/svg" viewBox="0 0 1200 800" width="1200" height="800" preserveAspectRatio="xMidYMid slice" role="img"><title>Ghuro Bangladesh — mosque landscape</title><defs>
    <linearGradient id="gupmossky" x1="0" y1="0" x2="0" y2="1">
      <stop offset="0%" stop-color="#23305a"/><stop offset="25%" stop-color="#5b3f76"/><stop offset="50%" stop-color="#ad4e6c"/><stop offset="75%" stop-color="#ee8145"/><stop offset="100%" stop-color="#ffbc5e"/>
    </linearGradient>
    <radialGradient id="gupmosglow" cx="50%" cy="50%" r="50%">
      <stop offset="0%" stop-color="#ff9040" stop-opacity="0.85"/>
      <stop offset="100%" stop-color="#ff9040" stop-opacity="0"/>
    </radialGradient>
    <linearGradient id="gupmosvig" x1="0" y1="0" x2="0" y2="1">
      <stop offset="0%" stop-color="#171426" stop-opacity="0.28"/>
      <stop offset="34%" stop-color="#171426" stop-opacity="0"/>
      <stop offset="100%" stop-color="#171426" stop-opacity="0.34"/>
    </linearGradient>
  </defs><rect width="1200" height="800" fill="url(#gupmossky)"/><circle cx="386.3" cy="261.2" r="116.4" fill="url(#gupmosglow)"/><circle cx="386.3" cy="261.2" r="36.4" fill="#ffeeb4" opacity="0.96"/><g transform="translate(720.6 145.1)" fill="#ffffff" opacity="0.2"><ellipse cx="0" cy="0" rx="86.5" ry="18.1"/><ellipse cx="-11.8" cy="-5.7" rx="17.4" ry="12.2"/><ellipse cx="48.7" cy="-8.5" rx="20.9" ry="14.6"/><ellipse cx="-4.7" cy="-5" rx="26.7" ry="21.9"/><ellipse cx="17.8" cy="-11.3" rx="19" ry="12.1"/><ellipse cx="-48.2" cy="-11.8" rx="18.9" ry="14.6"/></g><g transform="translate(581.9 187)" fill="#ffffff" opacity="0.2"><ellipse cx="0" cy="0" rx="117.3" ry="24"/><ellipse cx="-71.3" cy="-28.2" rx="46.1" ry="27.4"/><ellipse cx="28.7" cy="-7.6" rx="44.9" ry="33.7"/><ellipse cx="-34.1" cy="-20.4" rx="33.3" ry="21.2"/><ellipse cx="20.7" cy="-28.1" rx="42.5" ry="35.1"/><ellipse cx="-43.6" cy="-23.4" rx="43.3" ry="36.6"/><ellipse cx="79.7" cy="-12.1" rx="23.9" ry="20.2"/></g><g transform="translate(822.5 198.2)" fill="#ffffff" opacity="0.2"><ellipse cx="0" cy="0" rx="104.7" ry="19.6"/><ellipse cx="38" cy="-7.8" rx="35.1" ry="19.9"/><ellipse cx="-26.1" cy="-16.9" rx="25" ry="12.5"/><ellipse cx="11.7" cy="-16.7" rx="31.6" ry="26.5"/><ellipse cx="-46.5" cy="-9.6" rx="26.1" ry="21.6"/></g><path d="M373.9 74.2 q6.3 -6.3 12.6 0 q6.3 -6.3 12.6 0" stroke="#171426" stroke-width="1.8" fill="none" opacity="0.4"/><path d="M411 85.7 q7.2 -7.2 14.3 0 q7.2 -7.2 14.3 0" stroke="#171426" stroke-width="1.8" fill="none" opacity="0.3"/><path d="M303.9 132.2 q5.7 -5.7 11.5 0 q5.7 -5.7 11.5 0" stroke="#171426" stroke-width="1.8" fill="none" opacity="0.6"/><path d="M-40 405.5 C85.7 405.5 85.7 406.3 171.4 406.3 C257.1 406.3 257.1 405 342.9 405 C428.6 405 428.6 406.3 514.3 406.3 C600 406.3 600 406.2 685.7 406.2 C771.4 406.2 771.4 407.6 857.1 407.6 C942.9 407.6 942.9 408.2 1028.6 408.2 C1114.3 408.2 1114.3 408.7 1200 408.7 L1240 840 L-40 840 Z" fill="#d07044"/><rect x="677" y="384.5" width="3.1" height="27.2" fill="#cc6b40"/><circle cx="675.3" cy="368" r="14.4" fill="#cc6b40"/><circle cx="683.2" cy="370" r="10.5" fill="#cc6b40"/><circle cx="677" cy="378.9" r="12.6" fill="#cc6b40"/><circle cx="674.9" cy="365.5" r="11.7" fill="#cc6b40"/><circle cx="685.4" cy="369.8" r="10.8" fill="#cc6b40"/><rect x="567.5" y="389.6" width="2.5" height="22.1" fill="#cc6b40"/><circle cx="560.1" cy="387" r="8.7" fill="#cc6b40"/><circle cx="563" cy="373.9" r="9.9" fill="#cc6b40"/><circle cx="576.2" cy="384.9" r="8.9" fill="#cc6b40"/><circle cx="560.3" cy="381.7" r="7.8" fill="#cc6b40"/><circle cx="571.3" cy="373.7" r="11.4" fill="#cc6b40"/><rect x="417.9" y="383.5" width="3.2" height="28.2" fill="#cc6b40"/><circle cx="431.9" cy="365.8" r="18.4" fill="#cc6b40"/><circle cx="405.5" cy="381.8" r="15.4" fill="#cc6b40"/><circle cx="429" cy="367.2" r="19.4" fill="#cc6b40"/><circle cx="434.8" cy="379.2" r="17.6" fill="#cc6b40"/><rect x="1009.4" y="381.5" width="3.4" height="30.2" fill="#cc6b40"/><circle cx="1014.6" cy="362.4" r="18.8" fill="#cc6b40"/><circle cx="1006.4" cy="371.9" r="16.8" fill="#cc6b40"/><circle cx="1004" cy="361.5" r="18" fill="#cc6b40"/><circle cx="1009.4" cy="365.5" r="11.8" fill="#cc6b40"/><circle cx="1008.9" cy="364.8" r="15.6" fill="#cc6b40"/><rect x="1140.2" y="382.6" width="3.3" height="29.1" fill="#cc6b40"/><circle cx="1152.9" cy="369.1" r="18.7" fill="#cc6b40"/><circle cx="1131.2" cy="380" r="13.6" fill="#cc6b40"/><circle cx="1146.7" cy="362.3" r="18.2" fill="#cc6b40"/><circle cx="1138.6" cy="370.6" r="13.2" fill="#cc6b40"/><circle cx="1153.3" cy="377.6" r="13.5" fill="#cc6b40"/><rect x="1049.6" y="386.9" width="2.8" height="24.8" fill="#cc6b40"/><circle cx="1045.8" cy="379.2" r="11.4" fill="#cc6b40"/><circle cx="1060.8" cy="382.1" r="10.8" fill="#cc6b40"/><circle cx="1048.1" cy="376.4" r="12.2" fill="#cc6b40"/><circle cx="1040" cy="379.7" r="13.8" fill="#cc6b40"/><rect x="185" y="388.4" width="2.6" height="23.3" fill="#cc6b40"/><circle cx="192" cy="383.9" r="10.6" fill="#cc6b40"/><circle cx="190.9" cy="371.8" r="9.5" fill="#cc6b40"/><circle cx="186.6" cy="373.6" r="9.3" fill="#cc6b40"/><rect x="34.5" y="391.6" width="2.3" height="20.1" fill="#cc6b40"/><circle cx="39.8" cy="378.7" r="9.5" fill="#cc6b40"/><circle cx="37.4" cy="378.1" r="11" fill="#cc6b40"/><circle cx="46.6" cy="382.4" r="11" fill="#cc6b40"/><rect x="706.4" y="380.3" width="3.5" height="31.4" fill="#cc6b40"/><circle cx="720.9" cy="365.5" r="12.6" fill="#cc6b40"/><circle cx="697.6" cy="376.1" r="9.5" fill="#cc6b40"/><circle cx="705.8" cy="360" r="10.1" fill="#cc6b40"/><circle cx="704" cy="361.6" r="9.2" fill="#cc6b40"/><circle cx="711.6" cy="366.5" r="11.8" fill="#cc6b40"/><rect x="579.8" y="375.4" width="4.1" height="36.3" fill="#cc6b40"/><circle cx="593.2" cy="371.6" r="13" fill="#cc6b40"/><circle cx="576" cy="350.8" r="14.6" fill="#cc6b40"/><circle cx="591.8" cy="358.1" r="16.8" fill="#cc6b40"/><circle cx="566.3" cy="362.6" r="17.3" fill="#cc6b40"/><circle cx="596.5" cy="361" r="18.1" fill="#cc6b40"/><rect x="448" y="477.6" width="428.7" height="145.7" fill="#171426"/><path d="M489.1 477.6 C489.1 415.9 578.5 415.9 578.5 477.6 Z" fill="#171426"/><rect x="529.8" y="406" width="8" height="19.7" fill="#171426"/><circle cx="533.8" cy="402.4" r="4.9" fill="#171426"/><path d="M545.6 477.6 C545.6 386 693.4 386 693.4 477.6 Z" fill="#171426"/><rect x="612.9" y="368.4" width="13.3" height="32.5" fill="#171426"/><circle cx="619.5" cy="362.4" r="8.1" fill="#171426"/><path d="M659.6 477.6 C659.6 413.9 751 413.9 751 477.6 Z" fill="#171426"/><rect x="701.1" y="403.9" width="8.2" height="20.1" fill="#171426"/><circle cx="705.3" cy="400.2" r="5" fill="#171426"/><path d="M748.1 477.6 C748.1 414.8 833.9 414.8 833.9 477.6 Z" fill="#171426"/><rect x="787.1" y="405.8" width="7.7" height="18.9" fill="#171426"/><circle cx="791" cy="402.4" r="4.7" fill="#171426"/><path d="M469.5 623.3 L469.5 541.9 Q490.9 503.3 512.3 541.9 L512.3 623.3 Z" fill="#58514e" opacity="0.55"/><path d="M555.2 623.3 L555.2 541.9 Q576.6 503.3 598.1 541.9 L598.1 623.3 Z" fill="#58514e" opacity="0.55"/><path d="M641 623.3 L641 541.9 Q662.4 503.3 683.8 541.9 L683.8 623.3 Z" fill="#58514e" opacity="0.55"/><path d="M726.7 623.3 L726.7 541.9 Q748.1 503.3 769.6 541.9 L769.6 623.3 Z" fill="#58514e" opacity="0.55"/><path d="M812.4 623.3 L812.4 541.9 Q833.9 503.3 855.3 541.9 L855.3 623.3 Z" fill="#58514e" opacity="0.55"/><rect x="391.4" y="437.1" width="15.4" height="186.2" fill="#171426"/><rect x="386" y="431.7" width="26.2" height="6.2" fill="#171426"/><path d="M389.6 431.7 Q399.1 410.9 408.7 431.7 Z" fill="#171426"/><rect x="398.2" y="403.9" width="1.9" height="7.7" fill="#171426"/><rect x="918" y="407.6" width="15.4" height="215.7" fill="#171426"/><rect x="912.6" y="402.2" width="26.2" height="6.2" fill="#171426"/><path d="M916.1 402.2 Q925.7 381.4 935.3 402.2 Z" fill="#171426"/><rect x="924.8" y="374.4" width="1.9" height="7.7" fill="#171426"/><rect x="0" y="623.3" width="1200" height="176.7" fill="#3a3a63"/><g transform="translate(0 1246.6) scale(1 -1)" opacity="0.22">
      <rect x="448" y="477.6" width="428.7" height="145.7" fill="#171426"/>
    </g><rect x="0" y="639.3" width="1200" height="2.5" fill="#ff9f52" opacity="0.1"/><rect x="0" y="663.3" width="1200" height="2.5" fill="#ff9f52" opacity="0.2"/><rect x="0" y="687.3" width="1200" height="2.5" fill="#ff9f52" opacity="0.2"/><rect x="0" y="711.3" width="1200" height="2.5" fill="#ff9f52" opacity="0.2"/><rect x="0" y="735.3" width="1200" height="2.5" fill="#ff9f52" opacity="0.3"/><rect x="0" y="759.3" width="1200" height="2.5" fill="#ff9f52" opacity="0.3"/><rect width="1200" height="800" fill="url(#gupmosvig)"/></svg>