<svg xmlns="http://www.w3.org/2000/svg" viewBox="0 0 1200 800" width="1200" height="800" preserveAspectRatio="xMidYMid slice" role="img"><title>Ghuro Bangladesh — river landscape</title><defs>
    <linearGradient id="g692rivsky" x1="0" y1="0" x2="0" y2="1">
      <stop offset="0%" stop-color="#23305a"/><stop offset="25%" stop-color="#5b3f76"/><stop offset="50%" stop-color="#ad4e6c"/><stop offset="75%" stop-color="#ee8145"/><stop offset="100%" stop-color="#ffbc5e"/>
    </linearGradient>
    <radialGradient id="g692rivglow" cx="50%" cy="50%" r="50%">
      <stop offset="0%" stop-color="#ff9040" stop-opacity="0.85"/>
      <stop offset="100%" stop-color="#ff9040" stop-opacity="0"/>
    </radialGradient>
    <linearGradient id="g692rivvig" x1="0" y1="0" x2="0" y2="1">
      <stop offset="0%" stop-color="#171426" stop-opacity="0.28"/>
      <stop offset="34%" stop-color="#171426" stop-opacity="0"/>
      <stop offset="100%" stop-color="#171426" stop-opacity="0.34"/>
    </linearGradient>
  </defs><rect width="1200" height="800" fill="url(#g692rivsky)"/><circle cx="366.9" cy="238.5" r="137.8" fill="url(#g692rivglow)"/><circle cx="366.9" cy="238.5" r="43.1" fill="#ffeeb4" opacity="0.96"/><g transform="translate(447.3 283.2)" fill="#ffffff" opacity="0.1"><ellipse cx="0" cy="0" rx="160.9" ry="35.9"/><ellipse cx="-54" cy="-41.6" rx="61.7" ry="32.8"/><ellipse cx="106.6" cy="-20.9" rx="48" ry="32.9"/><ellipse cx="107.9" cy="-17.7" rx="54.3" ry="39"/><ellipse cx="-74.1" cy="-20.3" rx="53" ry="37.1"/></g><g transform="translate(109.7 40.3)" fill="#ffffff" opacity="0.2"><ellipse cx="0" cy="0" rx="103.9" ry="18.7"/><ellipse cx="61.8" cy="-8.2" rx="22.6" ry="12.9"/><ellipse cx="11.6" cy="-7.2" rx="31" ry="21.7"/><ellipse cx="-37.7" cy="-22.6" rx="39.1" ry="32.5"/><ellipse cx="-5.4" cy="-16.3" rx="25.9" ry="15.6"/><ellipse cx="-38.6" cy="-9.7" rx="39.8" ry="24.4"/></g><path d="M-40 367 C66.7 367 66.7 369.6 133.3 369.6 C200 369.6 200 371.1 266.7 371.1 C333.3 371.1 333.3 367.9 400 367.9 C466.7 367.9 466.7 370.9 533.3 370.9 C600 370.9 600 368.9 666.7 368.9 C733.3 368.9 733.3 367.8 800 367.8 C866.7 367.8 866.7 365.5 933.3 365.5 C1000 365.5 1000 366.6 1066.7 366.6 C1133.3 366.6 1133.3 364.7 1200 364.7 L1240 840 L-40 840 Z" fill="#766f51"/><rect x="586.1" y="356.2" width="1.9" height="17" fill="#646b50"/><circle cx="592.3" cy="347" r="7.4" fill="#646b50"/><circle cx="586.9" cy="353.9" r="5.8" fill="#646b50"/><circle cx="591.9" cy="354.8" r="6" fill="#646b50"/><circle cx="582.1" cy="350.4" r="7.7" fill="#646b50"/><rect x="1060.2" y="351.9" width="2.2" height="19.3" fill="#646b50"/><circle cx="1069.5" cy="350.6" r="11.8" fill="#646b50"/><circle cx="1052.3" cy="341.7" r="8.9" fill="#646b50"/><circle cx="1055.8" cy="339.2" r="10" fill="#646b50"/><circle cx="1054.8" cy="350.4" r="7.9" fill="#646b50"/><rect x="1161.6" y="345.3" width="2.7" height="23.9" fill="#646b50"/><circle cx="1149.3" cy="336" r="12.4" fill="#646b50"/><circle cx="1155.3" cy="339.6" r="14.2" fill="#646b50"/><circle cx="1152.9" cy="334.1" r="12.3" fill="#646b50"/><rect x="653.8" y="340.8" width="3" height="26.6" fill="#646b50"/><circle cx="658" cy="337.9" r="12.3" fill="#646b50"/><circle cx="648.6" cy="334" r="10.2" fill="#646b50"/><circle cx="646.8" cy="334.4" r="10.7" fill="#646b50"/><rect x="1014.5" y="353.2" width="2.2" height="19.7" fill="#646b50"/><circle cx="1006.9" cy="339.7" r="11.2" fill="#646b50"/><circle cx="1008.6" cy="348.6" r="7.6" fill="#646b50"/><circle cx="1007.7" cy="351" r="9.4" fill="#646b50"/><circle cx="1012.5" cy="347.6" r="7.2" fill="#646b50"/><circle cx="1018.4" cy="352.4" r="9.3" fill="#646b50"/><rect x="649.2" y="354" width="2.5" height="22.3" fill="#646b50"/><circle cx="660.6" cy="341.7" r="12.2" fill="#646b50"/><circle cx="650.5" cy="338.6" r="11.7" fill="#646b50"/><circle cx="658.7" cy="343" r="11.3" fill="#646b50"/><rect x="2.6" y="343.5" width="3.2" height="28.5" fill="#646b50"/><circle cx="-1.7" cy="340.7" r="13.2" fill="#646b50"/><circle cx="11.6" cy="331.5" r="10.7" fill="#646b50"/><circle cx="-5.2" cy="324.1" r="11.3" fill="#646b50"/><circle cx="-6.1" cy="336.3" r="14.8" fill="#646b50"/><circle cx="5.9" cy="323.4" r="10.6" fill="#646b50"/><rect x="744.6" y="354.6" width="2.3" height="20.9" fill="#646b50"/><circle cx="740.5" cy="346.6" r="7.1" fill="#646b50"/><circle cx="743" cy="339.6" r="10.4" fill="#646b50"/><circle cx="750.2" cy="342.5" r="8.8" fill="#646b50"/><rect x="418" y="348.1" width="2.5" height="22.4" fill="#646b50"/><circle cx="411.3" cy="335.3" r="9.6" fill="#646b50"/><circle cx="427.8" cy="333.3" r="7.1" fill="#646b50"/><circle cx="428.7" cy="337.1" r="7.4" fill="#646b50"/><rect x="542.6" y="349.2" width="2.2" height="19.8" fill="#646b50"/><circle cx="543" cy="341.4" r="6.8" fill="#646b50"/><circle cx="547.6" cy="338.8" r="8.2" fill="#646b50"/><circle cx="540.8" cy="347.5" r="9.3" fill="#646b50"/><circle cx="543.7" cy="346.8" r="6.3" fill="#646b50"/><rect x="299.3" y="342" width="3.3" height="29.2" fill="#646b50"/><circle cx="289.5" cy="322.3" r="20.9" fill="#646b50"/><circle cx="295.3" cy="339.7" r="13.3" fill="#646b50"/><circle cx="285.5" cy="332.9" r="16.2" fill="#646b50"/><circle cx="312.8" cy="326" r="17.8" fill="#646b50"/><rect x="325" y="352.9" width="1.8" height="16" fill="#646b50"/><circle cx="320" cy="347.8" r="8" fill="#646b50"/><circle cx="320.7" cy="343.5" r="10.2" fill="#646b50"/><circle cx="326.5" cy="347.2" r="10.8" fill="#646b50"/><circle cx="322.4" cy="342.9" r="7" fill="#646b50"/><rect x="252.8" y="355" width="2.5" height="22.3" fill="#646b50"/><circle cx="250.7" cy="351.7" r="9.7" fill="#646b50"/><circle cx="261.1" cy="344.4" r="12.2" fill="#646b50"/><circle cx="256" cy="351.8" r="11.7" fill="#646b50"/><circle cx="253.2" cy="348.6" r="15.4" fill="#646b50"/><rect x="729.3" y="348.1" width="2.4" height="21.7" fill="#646b50"/><circle cx="725.3" cy="334.6" r="8" fill="#646b50"/><circle cx="731.9" cy="332.7" r="8" fill="#646b50"/><circle cx="721.9" cy="343.3" r="8.1" fill="#646b50"/><rect x="1083.3" y="348.1" width="3.1" height="27.9" fill="#646b50"/><circle cx="1084.1" cy="333.6" r="19.3" fill="#646b50"/><circle cx="1094" cy="332.9" r="13.6" fill="#646b50"/><circle cx="1089.9" cy="338.9" r="13.7" fill="#646b50"/><circle cx="1096.9" cy="344.8" r="14.4" fill="#646b50"/><rect x="994" y="348.3" width="3.2" height="28.6" fill="#646b50"/><circle cx="984.1" cy="338.3" r="14.4" fill="#646b50"/><circle cx="992.8" cy="340.8" r="17.3" fill="#646b50"/><circle cx="989.7" cy="340.1" r="17.3" fill="#646b50"/><circle cx="997.4" cy="333.4" r="14.4" fill="#646b50"/><circle cx="1006.6" cy="328.3" r="11.9" fill="#646b50"/><path d="M-40 800 L430.1 386 L812.3 386 L1240 800 Z" fill="#3a3a63"/><path d="M528 386 L672 386 L864 800 L336 800 Z" fill="#ff9f52" opacity="0.3"/><rect x="480" y="386" width="240" height="2" fill="#ff9f52" opacity="0.1"/><rect x="387" y="400.8" width="426" height="3.2" fill="#ff9f52" opacity="0.1"/><rect x="294" y="431" width="612" height="4.4" fill="#ff9f52" opacity="0.1"/><rect x="201" y="472.2" width="798" height="5.6" fill="#ff9f52" opacity="0.2"/><rect x="108" y="522.6" width="984" height="6.8" fill="#ff9f52" opacity="0.2"/><rect x="15" y="581.2" width="1170" height="8" fill="#ff9f52" opacity="0.2"/><rect x="-78" y="647.3" width="1356" height="9.2" fill="#ff9f52" opacity="0.2"/><rect x="-171" y="720.4" width="1542" height="10.4" fill="#ff9f52" opacity="0.2"/><path d="M-40 576 L360 394 L240 394 L-40 496 Z" fill="#0e564e"/><path d="M1240 576 L840 394 L960 394 L1240 496 Z" fill="#0e564e"/><path d="M680.6 574 Q689.7 596.8 737.5 597.9 Q785.3 596.8 794.4 574 Q737.5 581.7 680.6 574 Z" fill="#241b29"/><rect x="736.2" y="476.7" width="2.7" height="97.3" fill="#241b29"/><path d="M737.5 476.7 L780.8 571.7 L737.5 571.7 Z" fill="#241b29" opacity="0.9"/><path d="M341.9 623.7 Q352.5 650.3 408.5 651.6 Q464.5 650.3 475.2 623.7 Q408.5 632.7 341.9 623.7 Z" fill="#201928"/><path d="M400.5 623.7 l13.3 -26.7 l4 2.7 l-13.3 26.7 Z" fill="#201928"/><path d="M591.9 529.8 Q599.7 549.1 640.2 550.1 Q680.7 549.1 688.4 529.8 Q640.2 536.4 591.9 529.8 Z" fill="#281e2a"/><rect x="639" y="430.2" width="2.3" height="99.6" fill="#281e2a"/><path d="M640.2 430.2 L676.8 527.9 L640.2 527.9 Z" fill="#281e2a" opacity="0.9"/><rect width="1200" height="800" fill="url(#g692rivvig)"/></svg>