<svg xmlns="http://www.w3.org/2000/svg" viewBox="0 0 1200 800" width="1200" height="800" preserveAspectRatio="xMidYMid slice" role="img"><title>Ghuro Bangladesh — stupa landscape</title><defs>
    <linearGradient id="ggrstusky" x1="0" y1="0" x2="0" y2="1">
      <stop offset="0%" stop-color="#2f80b8"/><stop offset="25%" stop-color="#5ea5d2"/><stop offset="50%" stop-color="#9ecfe4"/><stop offset="75%" stop-color="#d3eaf0"/><stop offset="100%" stop-color="#f4f5ea"/>
    </linearGradient>
    <radialGradient id="ggrstuglow" cx="50%" cy="50%" r="50%">
      <stop offset="0%" stop-color="#ffefc0" stop-opacity="0.85"/>
      <stop offset="100%" stop-color="#ffefc0" stop-opacity="0"/>
    </radialGradient>
    <linearGradient id="ggrstuvig" x1="0" y1="0" x2="0" y2="1">
      <stop offset="0%" stop-color="#1c3239" stop-opacity="0.28"/>
      <stop offset="34%" stop-color="#1c3239" stop-opacity="0"/>
      <stop offset="100%" stop-color="#1c3239" stop-opacity="0.34"/>
    </linearGradient>
  </defs><rect width="1200" height="800" fill="url(#ggrstusky)"/><circle cx="812.1" cy="87.2" r="142.5" fill="url(#ggrstuglow)"/><circle cx="812.1" cy="87.2" r="44.5" fill="#fffdf2" opacity="0.96"/><g transform="translate(409.3 285.6)" fill="#ffffff" opacity="0.2"><ellipse cx="0" cy="0" rx="191" ry="24.9"/><ellipse cx="-59.6" cy="-34.2" rx="56.2" ry="39.1"/><ellipse cx="-57.8" cy="-26.5" rx="47.4" ry="40.2"/><ellipse cx="-5.9" cy="-13.8" rx="40.6" ry="30"/><ellipse cx="128.2" cy="-21.1" rx="65.2" ry="33.6"/></g><g transform="translate(715.2 45.1)" fill="#ffffff" opacity="0.2"><ellipse cx="0" cy="0" rx="136.3" ry="31.9"/><ellipse cx="-22.8" cy="-16.9" rx="45" ry="29.3"/><ellipse cx="-43.1" cy="-12.4" rx="32.2" ry="23.1"/><ellipse cx="43.3" cy="-6.5" rx="38.9" ry="27.9"/></g><g transform="translate(705.2 139.2)" fill="#ffffff" opacity="0.3"><ellipse cx="0" cy="0" rx="157.6" ry="35.6"/><ellipse cx="-84.5" cy="-16.1" rx="62.6" ry="52.3"/><ellipse cx="-82.4" cy="-6.6" rx="41.9" ry="22"/><ellipse cx="-102.4" cy="-34.8" rx="51.2" ry="28.2"/><ellipse cx="-92" cy="-26.9" rx="48.5" ry="36.7"/><ellipse cx="23.1" cy="-17.4" rx="58.9" ry="39.3"/><ellipse cx="-20.2" cy="-13.2" rx="38.9" ry="31.8"/></g><path d="M156.5 108.2 q6.2 -6.2 12.3 0 q6.2 -6.2 12.3 0" stroke="#1c3239" stroke-width="1.8" fill="none" opacity="0.3"/><path d="M139 171 q6.7 -6.7 13.4 0 q6.7 -6.7 13.4 0" stroke="#1c3239" stroke-width="1.8" fill="none" opacity="0.6"/><path d="M321.5 139.9 q6.2 -6.2 12.3 0 q6.2 -6.2 12.3 0" stroke="#1c3239" stroke-width="1.8" fill="none" opacity="0.7"/><path d="M132.3 120.8 q6.6 -6.6 13.3 0 q6.6 -6.6 13.3 0" stroke="#1c3239" stroke-width="1.8" fill="none" opacity="0.4"/><path d="M253 107.3 q6.7 -6.7 13.4 0 q6.7 -6.7 13.4 0" stroke="#1c3239" stroke-width="1.8" fill="none" opacity="0.3"/><path d="M-40 412.4 C85.7 412.4 85.7 414.6 171.4 414.6 C257.1 414.6 257.1 415.6 342.9 415.6 C428.6 415.6 428.6 413.2 514.3 413.2 C600 413.2 600 414.7 685.7 414.7 C771.4 414.7 771.4 415.3 857.1 415.3 C942.9 415.3 942.9 415.4 1028.6 415.4 C1114.3 415.4 1114.3 413.3 1200 413.3 L1240 840 L-40 840 Z" fill="#caaa9b"/><rect x="268" y="612.9" width="566.9" height="46.8" fill="#1c3239"/><rect x="268" y="628.5" width="566.9" height="3" fill="#de764d" opacity="0.32"/><rect x="317.1" y="566.1" width="468.6" height="46.8" fill="#253438"/><rect x="317.1" y="581.7" width="468.6" height="3" fill="#de764d" opacity="0.32"/><rect x="366.3" y="519.4" width="370.4" height="46.8" fill="#2f3637"/><rect x="366.3" y="534.9" width="370.4" height="3" fill="#de764d" opacity="0.32"/><rect x="466.4" y="398.9" width="170.1" height="102" fill="#1c3239"/><path d="M456.2 398.9 L551.4 296.9 L646.7 398.9 Z" fill="#1c3239"/><rect x="545.5" y="250.9" width="11.9" height="51" fill="#1c3239"/><rect x="0.4" y="655.4" width="67" height="34" fill="#32484e"/><rect x="77.7" y="655.4" width="67" height="34" fill="#32484e"/><rect x="153.3" y="655.4" width="67" height="34" fill="#32484e"/><rect x="221.6" y="655.4" width="67" height="34" fill="#32484e"/><rect x="300.7" y="655.4" width="67" height="34" fill="#32484e"/><rect x="373.3" y="655.4" width="67" height="34" fill="#32484e"/><rect x="449.8" y="655.4" width="67" height="34" fill="#32484e"/><rect x="527.3" y="655.4" width="67" height="34" fill="#32484e"/><rect x="603.2" y="655.4" width="67" height="34" fill="#32484e"/><rect x="672.4" y="655.4" width="67" height="34" fill="#32484e"/><rect x="748.8" y="655.4" width="67" height="34" fill="#32484e"/><rect x="824.1" y="655.4" width="67" height="34" fill="#32484e"/><rect x="898.3" y="655.4" width="67" height="34" fill="#32484e"/><rect x="977.1" y="655.4" width="67" height="34" fill="#32484e"/><rect x="1053.5" y="655.4" width="67" height="34" fill="#32484e"/><rect x="1121.4" y="655.4" width="67" height="34" fill="#32484e"/><rect x="0" y="689.4" width="1200" height="800" fill="#624032"/><rect width="1200" height="800" fill="url(#ggrstuvig)"/></svg>