<svg xmlns="http://www.w3.org/2000/svg" viewBox="0 0 1200 800" width="1200" height="800" preserveAspectRatio="xMidYMid slice" role="img"><title>Ghuro Bangladesh — stupa landscape</title><defs>
    <linearGradient id="g1s5stusky" x1="0" y1="0" x2="0" y2="1">
      <stop offset="0%" stop-color="#2f80b8"/><stop offset="25%" stop-color="#5ea5d2"/><stop offset="50%" stop-color="#9ecfe4"/><stop offset="75%" stop-color="#d3eaf0"/><stop offset="100%" stop-color="#f4f5ea"/>
    </linearGradient>
    <radialGradient id="g1s5stuglow" cx="50%" cy="50%" r="50%">
      <stop offset="0%" stop-color="#ffefc0" stop-opacity="0.85"/>
      <stop offset="100%" stop-color="#ffefc0" stop-opacity="0"/>
    </radialGradient>
    <linearGradient id="g1s5stuvig" x1="0" y1="0" x2="0" y2="1">
      <stop offset="0%" stop-color="#1c3239" stop-opacity="0.28"/>
      <stop offset="34%" stop-color="#1c3239" stop-opacity="0"/>
      <stop offset="100%" stop-color="#1c3239" stop-opacity="0.34"/>
    </linearGradient>
  </defs><rect width="1200" height="800" fill="url(#g1s5stusky)"/><circle cx="466.4" cy="92.8" r="140.8" fill="url(#g1s5stuglow)"/><circle cx="466.4" cy="92.8" r="44" fill="#fffdf2" opacity="0.96"/><g transform="translate(-30.6 285.2)" fill="#ffffff" opacity="0.1"><ellipse cx="0" cy="0" rx="121.6" ry="31.4"/><ellipse cx="45.4" cy="-10.7" rx="32.1" ry="20.9"/><ellipse cx="3.8" cy="-9.8" rx="24.5" ry="17.3"/><ellipse cx="-28" cy="-22.5" rx="41.6" ry="35"/></g><g transform="translate(11.1 145.2)" fill="#ffffff" opacity="0.2"><ellipse cx="0" cy="0" rx="146.5" ry="23.3"/><ellipse cx="-73" cy="-12" rx="57.4" ry="42"/><ellipse cx="-79.1" cy="-17.2" rx="43.2" ry="26"/><ellipse cx="17.4" cy="-26.4" rx="50.1" ry="32.1"/><ellipse cx="-12.5" cy="-18.4" rx="51.8" ry="39.6"/><ellipse cx="92.3" cy="-28.7" rx="41.4" ry="29.3"/></g><path d="M-40 437.1 C85.7 437.1 85.7 439.1 171.4 439.1 C257.1 439.1 257.1 440.1 342.9 440.1 C428.6 440.1 428.6 439.7 514.3 439.7 C600 439.7 600 440.9 685.7 440.9 C771.4 440.9 771.4 439.9 857.1 439.9 C942.9 439.9 942.9 438.5 1028.6 438.5 C1114.3 438.5 1114.3 438.8 1200 438.8 L1240 840 L-40 840 Z" fill="#caaa9b"/><rect x="272.3" y="596.3" width="573.7" height="47.3" fill="#1c3239"/><rect x="272.3" y="612" width="573.7" height="3" fill="#de764d" opacity="0.32"/><rect x="302.1" y="548.9" width="514" height="47.3" fill="#253438"/><rect x="302.1" y="564.7" width="514" height="3" fill="#de764d" opacity="0.32"/><rect x="331.9" y="501.6" width="454.4" height="47.3" fill="#2f3637"/><rect x="331.9" y="517.4" width="454.4" height="3" fill="#de764d" opacity="0.32"/><rect x="361.8" y="454.3" width="394.7" height="47.3" fill="#383736"/><rect x="361.8" y="470.1" width="394.7" height="3" fill="#de764d" opacity="0.32"/><rect x="391.6" y="406.9" width="335" height="47.3" fill="#413935"/><rect x="391.6" y="422.7" width="335" height="3" fill="#de764d" opacity="0.32"/><rect x="473.1" y="285" width="172.1" height="103.3" fill="#1c3239"/><path d="M462.7 285 L559.1 181.8 L655.5 285 Z" fill="#1c3239"/><rect x="553.1" y="135.3" width="12" height="51.6" fill="#1c3239"/><rect x="2.6" y="639.3" width="67" height="34.4" fill="#32484e"/><rect x="71.9" y="639.3" width="67" height="34.4" fill="#32484e"/><rect x="148.4" y="639.3" width="67" height="34.4" fill="#32484e"/><rect x="224.2" y="639.3" width="67" height="34.4" fill="#32484e"/><rect x="299.3" y="639.3" width="67" height="34.4" fill="#32484e"/><rect x="375.5" y="639.3" width="67" height="34.4" fill="#32484e"/><rect x="453" y="639.3" width="67" height="34.4" fill="#32484e"/><rect x="528.1" y="639.3" width="67" height="34.4" fill="#32484e"/><rect x="597.2" y="639.3" width="67" height="34.4" fill="#32484e"/><rect x="675.9" y="639.3" width="67" height="34.4" fill="#32484e"/><rect x="746.8" y="639.3" width="67" height="34.4" fill="#32484e"/><rect x="825.1" y="639.3" width="67" height="34.4" fill="#32484e"/><rect x="902.5" y="639.3" width="67" height="34.4" fill="#32484e"/><rect x="978.2" y="639.3" width="67" height="34.4" fill="#32484e"/><rect x="1048.9" y="639.3" width="67" height="34.4" fill="#32484e"/><rect x="1125" y="639.3" width="67" height="34.4" fill="#32484e"/><rect x="0" y="673.7" width="1200" height="800" fill="#624032"/><rect width="1200" height="800" fill="url(#g1s5stuvig)"/></svg>