<svg xmlns="http://www.w3.org/2000/svg" viewBox="0 0 1200 800" width="1200" height="800" preserveAspectRatio="xMidYMid slice" role="img"><title>Ghuro Bangladesh — stupa landscape</title><defs>
    <linearGradient id="g1phstusky" x1="0" y1="0" x2="0" y2="1">
      <stop offset="0%" stop-color="#2f80b8"/><stop offset="25%" stop-color="#5ea5d2"/><stop offset="50%" stop-color="#9ecfe4"/><stop offset="75%" stop-color="#d3eaf0"/><stop offset="100%" stop-color="#f4f5ea"/>
    </linearGradient>
    <radialGradient id="g1phstuglow" cx="50%" cy="50%" r="50%">
      <stop offset="0%" stop-color="#ffefc0" stop-opacity="0.85"/>
      <stop offset="100%" stop-color="#ffefc0" stop-opacity="0"/>
    </radialGradient>
    <linearGradient id="g1phstuvig" x1="0" y1="0" x2="0" y2="1">
      <stop offset="0%" stop-color="#1c3239" stop-opacity="0.28"/>
      <stop offset="34%" stop-color="#1c3239" stop-opacity="0"/>
      <stop offset="100%" stop-color="#1c3239" stop-opacity="0.34"/>
    </linearGradient>
  </defs><rect width="1200" height="800" fill="url(#g1phstusky)"/><circle cx="312.9" cy="90.4" r="145.4" fill="url(#g1phstuglow)"/><circle cx="312.9" cy="90.4" r="45.4" fill="#fffdf2" opacity="0.96"/><g transform="translate(903.9 224)" fill="#ffffff" opacity="0.2"><ellipse cx="0" cy="0" rx="171.2" ry="40.8"/><ellipse cx="-98.4" cy="-21.6" rx="35.9" ry="26.9"/><ellipse cx="89.8" cy="-9.9" rx="55.6" ry="32.8"/><ellipse cx="81.7" cy="-31.8" rx="59" ry="30"/></g><g transform="translate(1183.6 317.5)" fill="#ffffff" opacity="0.1"><ellipse cx="0" cy="0" rx="136.1" ry="28"/><ellipse cx="-8.2" cy="-26.5" rx="43" ry="29.5"/><ellipse cx="-24.8" cy="-16.4" rx="43.5" ry="33.3"/><ellipse cx="-31.9" cy="-5.3" rx="30.6" ry="20.8"/></g><path d="M532 253.1 q6.4 -6.4 12.9 0 q6.4 -6.4 12.9 0" stroke="#1c3239" stroke-width="1.8" fill="none" opacity="0.6"/><path d="M470.7 200.1 q4.7 -4.7 9.5 0 q4.7 -4.7 9.5 0" stroke="#1c3239" stroke-width="1.8" fill="none" opacity="0.5"/><path d="M443.5 229 q7.4 -7.4 14.8 0 q7.4 -7.4 14.8 0" stroke="#1c3239" stroke-width="1.8" fill="none" opacity="0.6"/><path d="M465.1 303.5 q6.6 -6.6 13.1 0 q6.6 -6.6 13.1 0" stroke="#1c3239" stroke-width="1.8" fill="none" opacity="0.3"/><path d="M669 198.7 q4.9 -4.9 9.8 0 q4.9 -4.9 9.8 0" stroke="#1c3239" stroke-width="1.8" fill="none" opacity="0.6"/><path d="M512.1 204.1 q5.7 -5.7 11.4 0 q5.7 -5.7 11.4 0" stroke="#1c3239" stroke-width="1.8" fill="none" opacity="0.5"/><path d="M656.5 244.8 q5.3 -5.3 10.6 0 q5.3 -5.3 10.6 0" stroke="#1c3239" stroke-width="1.8" fill="none" opacity="0.5"/><path d="M-40 427.9 C85.7 427.9 85.7 428.5 171.4 428.5 C257.1 428.5 257.1 430.1 342.9 430.1 C428.6 430.1 428.6 430 514.3 430 C600 430 600 428.8 685.7 428.8 C771.4 428.8 771.4 431.5 857.1 431.5 C942.9 431.5 942.9 431.6 1028.6 431.6 C1114.3 431.6 1114.3 432 1200 432 L1240 840 L-40 840 Z" fill="#caaa9b"/><rect x="305.2" y="580.5" width="654.1" height="54" fill="#1c3239"/><rect x="305.2" y="598.5" width="654.1" height="3" fill="#de764d" opacity="0.32"/><rect x="347.7" y="526.5" width="569.1" height="54" fill="#253438"/><rect x="347.7" y="544.5" width="569.1" height="3" fill="#de764d" opacity="0.32"/><rect x="390.2" y="472.6" width="484" height="54" fill="#2f3637"/><rect x="390.2" y="490.5" width="484" height="3" fill="#de764d" opacity="0.32"/><rect x="432.7" y="418.6" width="399" height="54" fill="#383736"/><rect x="432.7" y="436.6" width="399" height="3" fill="#de764d" opacity="0.32"/><rect x="534.1" y="279.6" width="196.2" height="117.7" fill="#1c3239"/><path d="M522.3 279.6 L632.2 161.9 L742.1 279.6 Z" fill="#1c3239"/><rect x="625.3" y="108.9" width="13.7" height="58.9" fill="#1c3239"/><rect x="0.3" y="629.5" width="67" height="39.2" fill="#32484e"/><rect x="77.1" y="629.5" width="67" height="39.2" fill="#32484e"/><rect x="146.4" y="629.5" width="67" height="39.2" fill="#32484e"/><rect x="223.7" y="629.5" width="67" height="39.2" fill="#32484e"/><rect x="298.6" y="629.5" width="67" height="39.2" fill="#32484e"/><rect x="371.7" y="629.5" width="67" height="39.2" fill="#32484e"/><rect x="452.2" y="629.5" width="67" height="39.2" fill="#32484e"/><rect x="523.2" y="629.5" width="67" height="39.2" fill="#32484e"/><rect x="600.5" y="629.5" width="67" height="39.2" fill="#32484e"/><rect x="676.7" y="629.5" width="67" height="39.2" fill="#32484e"/><rect x="750.9" y="629.5" width="67" height="39.2" fill="#32484e"/><rect x="825.5" y="629.5" width="67" height="39.2" fill="#32484e"/><rect x="902.6" y="629.5" width="67" height="39.2" fill="#32484e"/><rect x="978.7" y="629.5" width="67" height="39.2" fill="#32484e"/><rect x="1047.5" y="629.5" width="67" height="39.2" fill="#32484e"/><rect x="1125" y="629.5" width="67" height="39.2" fill="#32484e"/><rect x="0" y="668.8" width="1200" height="800" fill="#624032"/><rect width="1200" height="800" fill="url(#g1phstuvig)"/></svg>