<svg xmlns="http://www.w3.org/2000/svg" viewBox="0 0 1200 800" width="1200" height="800" preserveAspectRatio="xMidYMid slice" role="img"><title>Ghuro Bangladesh — temple landscape</title><defs>
    <linearGradient id="grstemsky" x1="0" y1="0" x2="0" y2="1">
      <stop offset="0%" stop-color="#4d6470"/><stop offset="25%" stop-color="#6d8489"/><stop offset="50%" stop-color="#93a89c"/><stop offset="75%" stop-color="#bccbb4"/><stop offset="100%" stop-color="#e0e7d3"/>
    </linearGradient>
    <radialGradient id="grstemglow" cx="50%" cy="50%" r="50%">
      <stop offset="0%" stop-color="#d3ddcb" stop-opacity="0.85"/>
      <stop offset="100%" stop-color="#d3ddcb" stop-opacity="0"/>
    </radialGradient>
    <linearGradient id="grstemvig" x1="0" y1="0" x2="0" y2="1">
      <stop offset="0%" stop-color="#1a2f28" stop-opacity="0.28"/>
      <stop offset="34%" stop-color="#1a2f28" stop-opacity="0"/>
      <stop offset="100%" stop-color="#1a2f28" stop-opacity="0.34"/>
    </linearGradient>
  </defs><rect width="1200" height="800" fill="url(#grstemsky)"/><circle cx="982.5" cy="102.3" r="128.4" fill="url(#grstemglow)"/><circle cx="982.5" cy="102.3" r="40.1" fill="#f5f8ec" opacity="0.7"/><g transform="translate(1119.4 114.6)" fill="#ffffff" opacity="0.3"><ellipse cx="0" cy="0" rx="163.8" ry="25.5"/><ellipse cx="91.7" cy="-38.7" rx="62" ry="35.1"/><ellipse cx="-23.8" cy="-24.5" rx="43.2" ry="30.9"/><ellipse cx="42.2" cy="-14.8" rx="49.8" ry="30.9"/><ellipse cx="69.3" cy="-37.5" rx="54.6" ry="36"/><ellipse cx="-50.6" cy="-12.1" rx="36.9" ry="24.3"/><ellipse cx="94.9" cy="-15.7" rx="61.6" ry="38"/></g><g transform="translate(306.8 251.8)" fill="#ffffff" opacity="0.4"><ellipse cx="0" cy="0" rx="114.7" ry="25.6"/><ellipse cx="13.3" cy="-18.4" rx="38.2" ry="20.9"/><ellipse cx="-3.8" cy="-13.6" rx="38.3" ry="32.2"/><ellipse cx="-46.1" cy="-12.9" rx="41.4" ry="28.7"/><ellipse cx="64.7" cy="-12.7" rx="28.8" ry="14.4"/><ellipse cx="20.1" cy="-8.5" rx="24.2" ry="12.7"/><ellipse cx="-18.6" cy="-30.9" rx="44.3" ry="36.7"/></g><g transform="translate(879.9 194.3)" fill="#ffffff" opacity="0.4"><ellipse cx="0" cy="0" rx="97.1" ry="14.9"/><ellipse cx="62" cy="-18" rx="35.5" ry="22.3"/><ellipse cx="-10.9" cy="-13" rx="37.7" ry="22.6"/><ellipse cx="43.9" cy="-16.7" rx="28.4" ry="20.2"/><ellipse cx="-54.2" cy="-4.4" rx="25.5" ry="14.1"/></g><g transform="translate(379.9 97.7)" fill="#ffffff" opacity="0.2"><ellipse cx="0" cy="0" rx="145.3" ry="34.9"/><ellipse cx="-79.6" cy="-13.1" rx="41.6" ry="30.2"/><ellipse cx="93" cy="-22.4" rx="54.5" ry="38.3"/><ellipse cx="18" cy="-17.6" rx="55.6" ry="42.8"/></g><g transform="translate(536.7 153.2)" fill="#ffffff" opacity="0.3"><ellipse cx="0" cy="0" rx="87.4" ry="21.5"/><ellipse cx="31.2" cy="-17.8" rx="28.3" ry="14.4"/><ellipse cx="13" cy="-8.9" rx="24.5" ry="17.1"/><ellipse cx="-38.5" cy="-16.2" rx="34.4" ry="27.6"/><ellipse cx="-1.6" cy="-10.8" rx="21" ry="15"/></g><g transform="translate(1210.5 230.5)" fill="#ffffff" opacity="0.3"><ellipse cx="0" cy="0" rx="172.1" ry="29.5"/><ellipse cx="97.3" cy="-15.8" rx="57" ry="41.3"/><ellipse cx="36.7" cy="-14.6" rx="44.9" ry="30.2"/><ellipse cx="34" cy="-17.9" rx="54.8" ry="28.3"/><ellipse cx="-101.2" cy="-31" rx="45.7" ry="38.6"/><ellipse cx="-67.1" cy="-35.5" rx="53.5" ry="28.5"/></g><g transform="translate(134.4 66.3)" fill="#ffffff" opacity="0.2"><ellipse cx="0" cy="0" rx="192.3" ry="47.4"/><ellipse cx="-73.1" cy="-20" rx="59.3" ry="41.6"/><ellipse cx="10" cy="-21.1" rx="47.4" ry="39.6"/><ellipse cx="-27.7" cy="-21.1" rx="69.5" ry="41.3"/><ellipse cx="122.2" cy="-48.8" rx="74.3" ry="52"/><ellipse cx="59.4" cy="-24.5" rx="69.7" ry="47.9"/></g><path d="M961.2 143.8 q6.6 -6.6 13.1 0 q6.6 -6.6 13.1 0" stroke="#1a2f28" stroke-width="1.8" fill="none" opacity="0.4"/><path d="M974.1 127.7 q4.5 -4.5 9.1 0 q4.5 -4.5 9.1 0" stroke="#1a2f28" stroke-width="1.8" fill="none" opacity="0.7"/><path d="M830.9 70.2 q7.2 -7.2 14.3 0 q7.2 -7.2 14.3 0" stroke="#1a2f28" stroke-width="1.8" fill="none" opacity="0.5"/><path d="M870.2 160.5 q5.6 -5.6 11.1 0 q5.6 -5.6 11.1 0" stroke="#1a2f28" stroke-width="1.8" fill="none" opacity="0.6"/><path d="M786.1 120.3 q6.7 -6.7 13.4 0 q6.7 -6.7 13.4 0" stroke="#1a2f28" stroke-width="1.8" fill="none" opacity="0.6"/><path d="M-40 352.9 C85.7 352.9 85.7 354.4 171.4 354.4 C257.1 354.4 257.1 355.2 342.9 355.2 C428.6 355.2 428.6 354.7 514.3 354.7 C600 354.7 600 355.1 685.7 355.1 C771.4 355.1 771.4 355.6 857.1 355.6 C942.9 355.6 942.9 355.9 1028.6 355.9 C1114.3 355.9 1114.3 356.4 1200 356.4 L1240 840 L-40 840 Z" fill="#b5957e"/><rect x="833.6" y="337.1" width="2.5" height="22" fill="#b68a70"/><circle cx="840.4" cy="324.3" r="12.2" fill="#b68a70"/><circle cx="828.4" cy="334.5" r="12.4" fill="#b68a70"/><circle cx="838.1" cy="333.3" r="14.1" fill="#b68a70"/><circle cx="840.5" cy="331.1" r="13.2" fill="#b68a70"/><circle cx="827.3" cy="328.4" r="13" fill="#b68a70"/><rect x="12.2" y="326.9" width="3.6" height="32.1" fill="#b68a70"/><circle cx="21" cy="318.3" r="23.2" fill="#b68a70"/><circle cx="-1.9" cy="318.2" r="16" fill="#b68a70"/><circle cx="3.2" cy="321.5" r="16.3" fill="#b68a70"/><circle cx="-5.2" cy="317" r="20.7" fill="#b68a70"/><rect x="631.3" y="337.8" width="2.4" height="21.2" fill="#b68a70"/><circle cx="637" cy="332.8" r="11.4" fill="#b68a70"/><circle cx="635.3" cy="328.8" r="14.5" fill="#b68a70"/><circle cx="624.4" cy="334.6" r="13.7" fill="#b68a70"/><circle cx="626.4" cy="329.4" r="14.7" fill="#b68a70"/><circle cx="642.9" cy="329.4" r="14.9" fill="#b68a70"/><rect x="239" y="320.5" width="4.3" height="38.5" fill="#b68a70"/><circle cx="229.1" cy="303.9" r="16.8" fill="#b68a70"/><circle cx="225.1" cy="296.1" r="13.3" fill="#b68a70"/><circle cx="253.5" cy="303.8" r="18.3" fill="#b68a70"/><circle cx="251.5" cy="293.3" r="13" fill="#b68a70"/><circle cx="247.2" cy="308.8" r="19.2" fill="#b68a70"/><rect x="917.8" y="329.2" width="3.3" height="29.8" fill="#b68a70"/><circle cx="910.1" cy="327.6" r="16.3" fill="#b68a70"/><circle cx="934.4" cy="326.9" r="13.1" fill="#b68a70"/><circle cx="934.9" cy="317.7" r="20.5" fill="#b68a70"/><circle cx="913.9" cy="323.8" r="16.2" fill="#b68a70"/><circle cx="926.1" cy="325.8" r="15.6" fill="#b68a70"/><rect x="315.6" y="341.1" width="2" height="17.9" fill="#b68a70"/><circle cx="307.5" cy="332.5" r="8" fill="#b68a70"/><circle cx="322.8" cy="338.9" r="9.1" fill="#b68a70"/><circle cx="307.8" cy="339.7" r="11.7" fill="#b68a70"/><rect x="316.7" y="320.9" width="4.3" height="38.2" fill="#b68a70"/><circle cx="301.6" cy="300.3" r="20.1" fill="#b68a70"/><circle cx="326.5" cy="312.7" r="19.7" fill="#b68a70"/><circle cx="310.8" cy="294.1" r="18.6" fill="#b68a70"/><circle cx="307.9" cy="301.8" r="19.5" fill="#b68a70"/><rect x="1158.6" y="333.1" width="2.9" height="25.9" fill="#b68a70"/><circle cx="1155.4" cy="331.4" r="12.1" fill="#b68a70"/><circle cx="1164.4" cy="319.8" r="8.5" fill="#b68a70"/><circle cx="1149.3" cy="329.6" r="11.4" fill="#b68a70"/><circle cx="1160.2" cy="321.3" r="11.1" fill="#b68a70"/><rect x="216" y="325.4" width="3.8" height="33.6" fill="#b68a70"/><circle cx="203.9" cy="308.8" r="15.7" fill="#b68a70"/><circle cx="229.6" cy="322.3" r="15.8" fill="#b68a70"/><circle cx="225.3" cy="315.9" r="15.4" fill="#b68a70"/><circle cx="230.3" cy="321.1" r="12.5" fill="#b68a70"/><rect x="616.2" y="323.9" width="3.9" height="35.1" fill="#b68a70"/><circle cx="608.3" cy="303" r="14.1" fill="#b68a70"/><circle cx="602.3" cy="300.6" r="12.9" fill="#b68a70"/><circle cx="631.6" cy="321.6" r="18.9" fill="#b68a70"/><rect x="343.4" y="604.2" width="452.4" height="195.8" fill="#1a2f28"/><rect x="374.8" y="497.4" width="389.5" height="106.8" fill="#1a2f28"/><path d="M500.5 497.4 L519.8 369.2 Q569.6 236.3 619.3 369.2 L638.7 497.4 Z" fill="#1a2f28"/><rect x="562.7" y="199" width="13.8" height="46.6" fill="#1a2f28"/><circle cx="569.6" cy="194.3" r="9.7" fill="#1a2f28"/><path d="M387.4 497.4 L397.9 430.7 Q425.1 361.6 452.2 430.7 L462.8 497.4 Z" fill="#1a2f28"/><rect x="421.3" y="342.2" width="7.5" height="24.2" fill="#1a2f28"/><circle cx="425.1" cy="339.8" r="5.3" fill="#1a2f28"/><path d="M676.4 497.4 L686.9 430.7 Q714.1 361.6 741.2 430.7 L751.8 497.4 Z" fill="#1a2f28"/><rect x="710.3" y="342.2" width="7.5" height="24.2" fill="#1a2f28"/><circle cx="714.1" cy="339.8" r="5.3" fill="#1a2f28"/><path d="M425.1 604.2 L425.1 547.7 Q456.5 510 487.9 547.7 L487.9 604.2 Z" fill="#5c6b63" opacity="0.5"/><path d="M538.2 604.2 L538.2 547.7 Q569.6 510 601 547.7 L601 604.2 Z" fill="#5c6b63" opacity="0.5"/><path d="M651.3 604.2 L651.3 547.7 Q682.7 510 714.1 547.7 L714.1 604.2 Z" fill="#5c6b63" opacity="0.5"/><rect x="381.1" y="503.7" width="377" height="2" fill="#de764d" opacity="0.3"/><rect x="381.1" y="510.7" width="377" height="2" fill="#de764d" opacity="0.3"/><rect x="381.1" y="517.7" width="377" height="2" fill="#de764d" opacity="0.3"/><rect x="381.1" y="524.7" width="377" height="2" fill="#de764d" opacity="0.3"/><rect x="381.1" y="531.7" width="377" height="2" fill="#de764d" opacity="0.3"/><ellipse cx="600" cy="816" rx="720" ry="80" fill="#4e7871" opacity="0.75"/><rect width="1200" height="800" fill="url(#grstemvig)"/></svg>