<svg xmlns="http://www.w3.org/2000/svg" viewBox="0 0 1200 800" width="1200" height="800" preserveAspectRatio="xMidYMid slice" role="img"><title>Ghuro Bangladesh — village landscape</title><defs>
    <linearGradient id="g28mvilsky" x1="0" y1="0" x2="0" y2="1">
      <stop offset="0%" stop-color="#2d4272"/><stop offset="25%" stop-color="#6d5a94"/><stop offset="50%" stop-color="#c47b96"/><stop offset="75%" stop-color="#f2a878"/><stop offset="100%" stop-color="#ffdda4"/>
    </linearGradient>
    <radialGradient id="g28mvilglow" cx="50%" cy="50%" r="50%">
      <stop offset="0%" stop-color="#ffc078" stop-opacity="0.85"/>
      <stop offset="100%" stop-color="#ffc078" stop-opacity="0"/>
    </radialGradient>
    <linearGradient id="g28mvilvig" x1="0" y1="0" x2="0" y2="1">
      <stop offset="0%" stop-color="#1d2a38" stop-opacity="0.28"/>
      <stop offset="34%" stop-color="#1d2a38" stop-opacity="0"/>
      <stop offset="100%" stop-color="#1d2a38" stop-opacity="0.34"/>
    </linearGradient>
  </defs><rect width="1200" height="800" fill="url(#g28mvilsky)"/><circle cx="559.2" cy="228" r="121.3" fill="url(#g28mvilglow)"/><circle cx="559.2" cy="228" r="37.9" fill="#fff6dc" opacity="0.96"/><g transform="translate(992.2 247)" fill="#ffffff" opacity="0.3"><ellipse cx="0" cy="0" rx="173" ry="25.7"/><ellipse cx="-30" cy="-41.8" rx="67.4" ry="54.1"/><ellipse cx="7.3" cy="-14.1" rx="66.4" ry="34"/><ellipse cx="106.4" cy="-15.8" rx="60.1" ry="38.5"/><ellipse cx="83.7" cy="-15.7" rx="59.8" ry="31"/><ellipse cx="-116.6" cy="-23.5" rx="63.1" ry="50.1"/></g><g transform="translate(535.3 265.1)" fill="#ffffff" opacity="0.2"><ellipse cx="0" cy="0" rx="130.2" ry="26"/><ellipse cx="-60.8" cy="-8.9" rx="27.1" ry="22.2"/><ellipse cx="21.7" cy="-9.3" rx="28.6" ry="14.7"/><ellipse cx="-17.5" cy="-7.9" rx="41.3" ry="29.3"/><ellipse cx="25.7" cy="-14.7" rx="29.1" ry="24.2"/></g><g transform="translate(310.1 179.2)" fill="#ffffff" opacity="0.2"><ellipse cx="0" cy="0" rx="138" ry="29.9"/><ellipse cx="87.3" cy="-18.4" rx="48.2" ry="35.1"/><ellipse cx="-58.3" cy="-33.1" rx="48.8" ry="33.4"/><ellipse cx="-53" cy="-12.1" rx="42.7" ry="33.4"/><ellipse cx="-71.4" cy="-19.9" rx="53.8" ry="36.8"/></g><g transform="translate(-4.2 209.6)" fill="#ffffff" opacity="0.2"><ellipse cx="0" cy="0" rx="179" ry="29.6"/><ellipse cx="62.7" cy="-16" rx="48" ry="35.8"/><ellipse cx="-26.6" cy="-13.9" rx="64.7" ry="34.4"/><ellipse cx="106.2" cy="-19.2" rx="54.2" ry="36.1"/><ellipse cx="12.5" cy="-33.3" rx="63" ry="41.4"/></g><path d="M364.5 186 q6.5 -6.5 13 0 q6.5 -6.5 13 0" stroke="#1d2a38" stroke-width="1.8" fill="none" opacity="0.5"/><path d="M138.7 251.8 q4.2 -4.2 8.5 0 q4.2 -4.2 8.5 0" stroke="#1d2a38" stroke-width="1.8" fill="none" opacity="0.7"/><path d="M268.8 277.2 q6.8 -6.8 13.6 0 q6.8 -6.8 13.6 0" stroke="#1d2a38" stroke-width="1.8" fill="none" opacity="0.3"/><path d="M-40 369.7 C75 369.7 75 368.3 150 368.3 C225 368.3 225 367.7 300 367.7 C375 367.7 375 365 450 365 C525 365 525 368.2 600 368.2 C675 368.2 675 369.1 750 369.1 C825 369.1 825 365.9 900 365.9 C975 365.9 975 368.1 1050 368.1 C1125 368.1 1125 369.5 1200 369.5 L1240 840 L-40 840 Z" fill="#9d936d"/><rect x="770.7" y="356.6" width="2.6" height="23.2" fill="#8f8b65"/><circle cx="785" cy="348" r="11.1" fill="#8f8b65"/><circle cx="779.3" cy="354" r="12.4" fill="#8f8b65"/><circle cx="772.7" cy="342.1" r="10" fill="#8f8b65"/><circle cx="761.6" cy="352.3" r="15" fill="#8f8b65"/><rect x="682.2" y="352.5" width="3.1" height="27.3" fill="#8f8b65"/><circle cx="693.5" cy="348.8" r="14.4" fill="#8f8b65"/><circle cx="688.7" cy="343.6" r="13.2" fill="#8f8b65"/><circle cx="683.8" cy="338.4" r="9.7" fill="#8f8b65"/><circle cx="686.1" cy="345.2" r="14.3" fill="#8f8b65"/><circle cx="684.2" cy="343.2" r="10.7" fill="#8f8b65"/><rect x="476.2" y="361.2" width="2.1" height="18.6" fill="#8f8b65"/><circle cx="470.3" cy="355.5" r="10" fill="#8f8b65"/><circle cx="485.3" cy="356" r="11.9" fill="#8f8b65"/><circle cx="486.3" cy="350.3" r="12.1" fill="#8f8b65"/><circle cx="467.7" cy="359.4" r="10.7" fill="#8f8b65"/><rect x="368" y="356.9" width="2.6" height="23" fill="#8f8b65"/><circle cx="360.2" cy="344.6" r="10.5" fill="#8f8b65"/><circle cx="368" cy="351.6" r="12.3" fill="#8f8b65"/><circle cx="363.5" cy="347.7" r="9.7" fill="#8f8b65"/><circle cx="376.8" cy="349.1" r="9.5" fill="#8f8b65"/><circle cx="374.5" cy="350.7" r="10.8" fill="#8f8b65"/><rect x="650.5" y="350.5" width="3.3" height="29.3" fill="#8f8b65"/><circle cx="649.2" cy="345.5" r="14.3" fill="#8f8b65"/><circle cx="652.7" cy="336.9" r="16.4" fill="#8f8b65"/><circle cx="655" cy="330.7" r="13" fill="#8f8b65"/><rect x="739.3" y="346.9" width="3.7" height="33" fill="#8f8b65"/><circle cx="752.3" cy="335.2" r="15.1" fill="#8f8b65"/><circle cx="739.1" cy="332.1" r="13.9" fill="#8f8b65"/><circle cx="740.5" cy="327.2" r="14.7" fill="#8f8b65"/><circle cx="728.7" cy="325.8" r="12.6" fill="#8f8b65"/><circle cx="749.3" cy="330.4" r="13.8" fill="#8f8b65"/><rect x="349.3" y="360.6" width="2.1" height="19.2" fill="#8f8b65"/><circle cx="348.7" cy="349.7" r="10.5" fill="#8f8b65"/><circle cx="341.9" cy="358.8" r="10.8" fill="#8f8b65"/><circle cx="355" cy="353.3" r="12.1" fill="#8f8b65"/><circle cx="345.1" cy="347.9" r="9.9" fill="#8f8b65"/><rect x="115.1" y="354.9" width="2.8" height="24.9" fill="#8f8b65"/><circle cx="110" cy="350" r="13.6" fill="#8f8b65"/><circle cx="103.5" cy="346.4" r="9.7" fill="#8f8b65"/><circle cx="109.7" cy="352.8" r="10.7" fill="#8f8b65"/><circle cx="114.3" cy="339.5" r="11" fill="#8f8b65"/><circle cx="113.1" cy="346.2" r="12.7" fill="#8f8b65"/><rect x="39.4" y="348.6" width="3.5" height="31.3" fill="#8f8b65"/><circle cx="40.6" cy="334.4" r="16.8" fill="#8f8b65"/><circle cx="41.2" cy="344.9" r="10.9" fill="#8f8b65"/><circle cx="37.6" cy="340.8" r="15.8" fill="#8f8b65"/><circle cx="31.9" cy="330.4" r="15" fill="#8f8b65"/><rect x="833.2" y="351.8" width="3.1" height="28" fill="#8f8b65"/><circle cx="845.1" cy="340.4" r="12.8" fill="#8f8b65"/><circle cx="837.9" cy="343.6" r="9.8" fill="#8f8b65"/><circle cx="829.1" cy="332" r="13.4" fill="#8f8b65"/><circle cx="845.5" cy="339.7" r="12.2" fill="#8f8b65"/><rect x="102.5" y="345.7" width="3.8" height="34.1" fill="#8f8b65"/><circle cx="97" cy="327.6" r="16.5" fill="#8f8b65"/><circle cx="98.3" cy="337.9" r="22.9" fill="#8f8b65"/><circle cx="92.6" cy="338.1" r="18.4" fill="#8f8b65"/><rect x="264.5" y="353.2" width="3" height="26.7" fill="#8f8b65"/><circle cx="254.9" cy="347.6" r="13.2" fill="#8f8b65"/><circle cx="264.7" cy="337.7" r="10.7" fill="#8f8b65"/><circle cx="266.1" cy="351.5" r="16.1" fill="#8f8b65"/><circle cx="268.7" cy="346.9" r="11.2" fill="#8f8b65"/><circle cx="260.4" cy="335.7" r="16.8" fill="#8f8b65"/><path d="M-40 528 C85.7 528 85.7 525.5 171.4 525.5 C257.1 525.5 257.1 526.2 342.9 526.2 C428.6 526.2 428.6 528.9 514.3 528.9 C600 528.9 600 529.3 685.7 529.3 C771.4 529.3 771.4 531.3 857.1 531.3 C942.9 531.3 942.9 532.1 1028.6 532.1 C1114.3 532.1 1114.3 532.5 1200 532.5 L1240 840 L-40 840 Z" fill="#3c5f39"/><path d="M155.9 507.9 L167.3 478.3 Q219.7 456.6 272.1 478.3 L283.5 507.9 Z" fill="#8e7e71"/><path d="M182.2 507.9 L182.2 472.2" stroke="#1d2a38" stroke-width="1.6" opacity="0.22"/><path d="M197.2 507.9 L197.2 472.2" stroke="#1d2a38" stroke-width="1.6" opacity="0.22"/><path d="M212.2 507.9 L212.2 472.2" stroke="#1d2a38" stroke-width="1.6" opacity="0.22"/><path d="M227.2 507.9 L227.2 472.2" stroke="#1d2a38" stroke-width="1.6" opacity="0.22"/><path d="M242.1 507.9 L242.1 472.2" stroke="#1d2a38" stroke-width="1.6" opacity="0.22"/><path d="M257.1 507.9 L257.1 472.2" stroke="#1d2a38" stroke-width="1.6" opacity="0.22"/><rect x="174.1" y="507.9" width="91.1" height="34.2" fill="#223335"/><rect x="210.6" y="517" width="18.2" height="25.1" fill="#1d2a38"/><path d="M250 528.1 L260 497.6 Q305.6 475.2 351.3 497.6 L361.2 528.1 Z" fill="#af9681"/><path d="M273 528.1 L273 491.4" stroke="#1d2a38" stroke-width="1.6" opacity="0.22"/><path d="M286.1 528.1 L286.1 491.4" stroke="#1d2a38" stroke-width="1.6" opacity="0.22"/><path d="M299.1 528.1 L299.1 491.4" stroke="#1d2a38" stroke-width="1.6" opacity="0.22"/><path d="M312.2 528.1 L312.2 491.4" stroke="#1d2a38" stroke-width="1.6" opacity="0.22"/><path d="M325.2 528.1 L325.2 491.4" stroke="#1d2a38" stroke-width="1.6" opacity="0.22"/><path d="M338.2 528.1 L338.2 491.4" stroke="#1d2a38" stroke-width="1.6" opacity="0.22"/><rect x="265.9" y="528.1" width="79.4" height="29.8" fill="#223335"/><rect x="297.7" y="536" width="15.9" height="21.8" fill="#1d2a38"/><path d="M442.3 527.5 L452.4 500.3 Q498.5 480.2 544.6 500.3 L554.7 527.5 Z" fill="#b39a83"/><path d="M465.5 527.5 L465.5 494.6" stroke="#1d2a38" stroke-width="1.6" opacity="0.22"/><path d="M478.7 527.5 L478.7 494.6" stroke="#1d2a38" stroke-width="1.6" opacity="0.22"/><path d="M491.9 527.5 L491.9 494.6" stroke="#1d2a38" stroke-width="1.6" opacity="0.22"/><path d="M505.1 527.5 L505.1 494.6" stroke="#1d2a38" stroke-width="1.6" opacity="0.22"/><path d="M518.3 527.5 L518.3 494.6" stroke="#1d2a38" stroke-width="1.6" opacity="0.22"/><path d="M531.4 527.5 L531.4 494.6" stroke="#1d2a38" stroke-width="1.6" opacity="0.22"/><rect x="458.4" y="527.5" width="80.2" height="30.1" fill="#223335"/><rect x="490.5" y="535.5" width="16" height="22.1" fill="#1d2a38"/><path d="M636.4 519 L648.5 484.5 Q704.5 459.1 760.4 484.5 L772.6 519 Z" fill="#8f7f71"/><path d="M664.5 519 L664.5 477.4" stroke="#1d2a38" stroke-width="1.6" opacity="0.22"/><path d="M680.5 519 L680.5 477.4" stroke="#1d2a38" stroke-width="1.6" opacity="0.22"/><path d="M696.5 519 L696.5 477.4" stroke="#1d2a38" stroke-width="1.6" opacity="0.22"/><path d="M712.5 519 L712.5 477.4" stroke="#1d2a38" stroke-width="1.6" opacity="0.22"/><path d="M728.4 519 L728.4 477.4" stroke="#1d2a38" stroke-width="1.6" opacity="0.22"/><path d="M744.4 519 L744.4 477.4" stroke="#1d2a38" stroke-width="1.6" opacity="0.22"/><rect x="655.8" y="519" width="97.3" height="36.5" fill="#223335"/><rect x="694.7" y="528.8" width="19.5" height="26.8" fill="#1d2a38"/><path d="M827.2 520.3 L836.9 495.4 Q881.2 477.1 925.6 495.4 L935.2 520.3 Z" fill="#9a8777"/><path d="M849.5 520.3 L849.5 490.3" stroke="#1d2a38" stroke-width="1.6" opacity="0.22"/><path d="M862.2 520.3 L862.2 490.3" stroke="#1d2a38" stroke-width="1.6" opacity="0.22"/><path d="M874.9 520.3 L874.9 490.3" stroke="#1d2a38" stroke-width="1.6" opacity="0.22"/><path d="M887.5 520.3 L887.5 490.3" stroke="#1d2a38" stroke-width="1.6" opacity="0.22"/><path d="M900.2 520.3 L900.2 490.3" stroke="#1d2a38" stroke-width="1.6" opacity="0.22"/><path d="M912.9 520.3 L912.9 490.3" stroke="#1d2a38" stroke-width="1.6" opacity="0.22"/><rect x="842.7" y="520.3" width="77.1" height="28.9" fill="#223335"/><rect x="873.5" y="528" width="15.4" height="21.2" fill="#1d2a38"/><path d="M951.8 519.1 L964.8 484.5 Q1024.7 459.2 1084.5 484.5 L1097.5 519.1 Z" fill="#af9781"/><path d="M981.9 519.1 L981.9 477.4" stroke="#1d2a38" stroke-width="1.6" opacity="0.22"/><path d="M999 519.1 L999 477.4" stroke="#1d2a38" stroke-width="1.6" opacity="0.22"/><path d="M1016.1 519.1 L1016.1 477.4" stroke="#1d2a38" stroke-width="1.6" opacity="0.22"/><path d="M1033.2 519.1 L1033.2 477.4" stroke="#1d2a38" stroke-width="1.6" opacity="0.22"/><path d="M1050.3 519.1 L1050.3 477.4" stroke="#1d2a38" stroke-width="1.6" opacity="0.22"/><path d="M1067.4 519.1 L1067.4 477.4" stroke="#1d2a38" stroke-width="1.6" opacity="0.22"/><rect x="972.6" y="519.1" width="104.1" height="39" fill="#223335"/><rect x="1014.2" y="529.5" width="20.8" height="28.6" fill="#1d2a38"/><path d="M371.6 536 Q379.4 456.1 385.9 390.7 L390.9 390.7 Q386 456.1 383.2 536 Z" fill="#1d2a38"/><path d="M385.9 390.7 Q361.8 384.5 342.2 397.4 Q361.8 390.6 385.9 393.7 Z" fill="#1d2a38"/><path d="M385.9 390.7 Q362.7 364.3 343.8 385.3 Q362.7 371.5 385.9 393.7 Z" fill="#1d2a38"/><path d="M385.9 390.7 Q372.9 353.2 362.4 376.8 Q372.9 359.9 385.9 393.7 Z" fill="#1d2a38"/><path d="M385.9 390.7 Q382.8 342.5 380.2 370.9 Q382.8 350 385.9 393.7 Z" fill="#1d2a38"/><path d="M385.9 390.7 Q391.8 335.7 396.7 368.3 Q391.8 344.4 385.9 393.7 Z" fill="#1d2a38"/><path d="M385.9 390.7 Q407.7 345 425.6 375.3 Q407.7 354 385.9 393.7 Z" fill="#1d2a38"/><path d="M385.9 390.7 Q406.7 361.3 423.8 383 Q406.7 368.3 385.9 393.7 Z" fill="#1d2a38"/><path d="M385.9 390.7 Q417.1 387.8 442.6 402.9 Q417.1 395.7 385.9 393.7 Z" fill="#1d2a38"/><path d="M135.2 526.8 Q149 431.4 167 353.4 L173.1 353.4 Q156.8 431.4 149.1 526.8 Z" fill="#1d2a38"/><path d="M167 353.4 Q135.2 340.2 109.2 359.2 Q135.2 348.6 167 356.4 Z" fill="#1d2a38"/><path d="M167 353.4 Q143.5 324.2 124.2 346.7 Q143.5 331.7 167 356.4 Z" fill="#1d2a38"/><path d="M167 353.4 Q160.8 295.8 155.6 330 Q160.8 304.9 167 356.4 Z" fill="#1d2a38"/><path d="M167 353.4 Q179.5 303.2 189.7 333.9 Q179.5 311.6 167 356.4 Z" fill="#1d2a38"/><path d="M167 353.4 Q191.4 317.3 211.3 343.5 Q191.4 325.7 167 356.4 Z" fill="#1d2a38"/><path d="M167 353.4 Q194.6 334.9 217.1 354.2 Q194.6 342.5 167 356.4 Z" fill="#1d2a38"/><path d="M581 555.2 Q587.7 476.8 591.7 412.7 L596.7 412.7 Q594.1 476.8 592.4 555.2 Z" fill="#1d2a38"/><path d="M591.7 412.7 Q564.3 402.3 542 418.3 Q564.3 409.4 591.7 415.7 Z" fill="#1d2a38"/><path d="M591.7 412.7 Q563.2 382 539.9 407.1 Q563.2 390.7 591.7 415.7 Z" fill="#1d2a38"/><path d="M591.7 412.7 Q573.1 367.3 557.9 396.6 Q573.1 375.8 591.7 415.7 Z" fill="#1d2a38"/><path d="M591.7 412.7 Q583.2 369.6 576.2 395.6 Q583.2 376.7 591.7 415.7 Z" fill="#1d2a38"/><path d="M591.7 412.7 Q596 367.3 599.6 394.2 Q596 374.5 591.7 415.7 Z" fill="#1d2a38"/><path d="M591.7 412.7 Q614.8 369.6 633.6 398.9 Q614.8 378.5 591.7 415.7 Z" fill="#1d2a38"/><path d="M591.7 412.7 Q613.6 394 631.5 411 Q613.6 400.3 591.7 415.7 Z" fill="#1d2a38"/><path d="M591.7 412.7 Q621.3 397.1 645.4 416.1 Q621.3 405 591.7 415.7 Z" fill="#1d2a38"/><path d="M782.4 536.7 Q787.3 456.3 786.7 390.5 L791.8 390.5 Q793.9 456.3 794.1 536.7 Z" fill="#1d2a38"/><path d="M786.7 390.5 Q760.7 383.1 739.5 397.4 Q760.7 389.8 786.7 393.5 Z" fill="#1d2a38"/><path d="M786.7 390.5 Q757.9 357.7 734.3 383.9 Q757.9 366.6 786.7 393.5 Z" fill="#1d2a38"/><path d="M786.7 390.5 Q774.6 342.1 764.7 371.7 Q774.6 350.2 786.7 393.5 Z" fill="#1d2a38"/><path d="M786.7 390.5 Q786.9 338.7 787.1 369.2 Q786.9 346.8 786.7 393.5 Z" fill="#1d2a38"/><path d="M786.7 390.5 Q798.5 333.5 808.2 368 Q798.5 342.9 786.7 393.5 Z" fill="#1d2a38"/><path d="M786.7 390.5 Q808.7 360.4 826.7 382.8 Q808.7 367.7 786.7 393.5 Z" fill="#1d2a38"/><path d="M786.7 390.5 Q814 383.1 836.3 398 Q814 390.1 786.7 393.5 Z" fill="#1d2a38"/><path d="M782.8 552.8 Q786.9 475.5 785.1 412.4 L790 412.4 Q793.2 475.5 794 552.8 Z" fill="#1d2a38"/><path d="M785.1 412.4 Q752.5 395.8 725.9 416.4 Q752.5 404.4 785.1 415.4 Z" fill="#1d2a38"/><path d="M785.1 412.4 Q768 384.2 754.1 404 Q768 390.4 785.1 415.4 Z" fill="#1d2a38"/><path d="M785.1 412.4 Q780.4 371.8 776.5 395.9 Q780.4 378.2 785.1 415.4 Z" fill="#1d2a38"/><path d="M785.1 412.4 Q794.2 359.6 801.7 391.2 Q794.2 368.1 785.1 415.4 Z" fill="#1d2a38"/><path d="M785.1 412.4 Q806.7 383.7 824.3 405.3 Q806.7 390.8 785.1 415.4 Z" fill="#1d2a38"/><path d="M785.1 412.4 Q812.4 405.9 834.7 420.4 Q812.4 412.9 785.1 415.4 Z" fill="#1d2a38"/><path d="M902.6 552.6 Q913.2 452 923 369.7 L929.4 369.7 Q921.4 452 917.2 552.6 Z" fill="#1d2a38"/><path d="M923 369.7 Q886.9 354.1 857.3 375.9 Q886.9 363.6 923 372.7 Z" fill="#1d2a38"/><path d="M923 369.7 Q886.8 335 857.3 364.8 Q886.8 345.6 923 372.7 Z" fill="#1d2a38"/><path d="M923 369.7 Q902.7 316 886.2 350.2 Q902.7 325.8 923 372.7 Z" fill="#1d2a38"/><path d="M923 369.7 Q912.2 309.2 903.5 345.5 Q912.2 319 923 372.7 Z" fill="#1d2a38"/><path d="M923 369.7 Q930.2 319.4 936.2 349.4 Q930.2 327.4 923 372.7 Z" fill="#1d2a38"/><path d="M923 369.7 Q949.1 309.8 970.4 348.9 Q949.1 321.3 923 372.7 Z" fill="#1d2a38"/><path d="M923 369.7 Q955 342.1 981.2 367.2 Q955 351.3 923 372.7 Z" fill="#1d2a38"/><path d="M923 369.7 Q964.1 347.7 997.7 374.2 Q964.1 358.7 923 372.7 Z" fill="#1d2a38"/><path d="M722.7 544.4 Q732.1 467.8 742.6 405.1 L747.4 405.1 Q738.4 467.8 733.9 544.4 Z" fill="#1d2a38"/><path d="M742.6 405.1 Q715.1 398.8 692.6 413.4 Q715.1 405.9 742.6 408.1 Z" fill="#1d2a38"/><path d="M742.6 405.1 Q718.7 366.8 699.1 393.9 Q718.7 375.3 742.6 408.1 Z" fill="#1d2a38"/><path d="M742.6 405.1 Q735.9 366.6 730.5 389.7 Q735.9 372.8 742.6 408.1 Z" fill="#1d2a38"/><path d="M742.6 405.1 Q746.7 362.2 750 387.6 Q746.7 368.9 742.6 408.1 Z" fill="#1d2a38"/><path d="M742.6 405.1 Q769.4 371 791.4 397 Q769.4 379.6 742.6 408.1 Z" fill="#1d2a38"/><path d="M742.6 405.1 Q776.7 392.1 804.7 412.1 Q776.7 401 742.6 408.1 Z" fill="#1d2a38"/><ellipse cx="716.6" cy="784.6" rx="552" ry="88" fill="#4d6c88" opacity="0.85"/><rect x="120" y="756.6" width="960" height="2" fill="#ffb680" opacity="0.1"/><rect x="120" y="772.6" width="960" height="2" fill="#ffb680" opacity="0.2"/><rect x="120" y="788.6" width="960" height="2" fill="#ffb680" opacity="0.2"/><rect x="120" y="804.6" width="960" height="2" fill="#ffb680" opacity="0.3"/><rect width="1200" height="800" fill="url(#g28mvilvig)"/></svg>